<?xml version="1.0" encoding="utf-8"?>
<!-- Generator: Adobe Illustrator 16.0.0, SVG Export Plug-In . SVG Version: 6.00 Build 0)  -->
<!DOCTYPE svg PUBLIC "-//W3C//DTD SVG 1.1//EN" "http://www.w3.org/Graphics/SVG/1.1/DTD/svg11.dtd">
<svg version="1.1" id="Calque_1" xmlns="http://www.w3.org/2000/svg" xmlns:xlink="http://www.w3.org/1999/xlink" x="0px" y="0px"
	 width="432px" height="432px" viewBox="0 0 432 432" enable-background="new 0 0 432 432" xml:space="preserve">
<g>
	<g>
		<path fill="#0071BC" d="M131.704,121.703c-1.707-0.262-3.202,0.261-4.32,1.512c-1.279,1.412-1.56,3.055-0.823,4.726
			c0.164,0.397,0.379,0.763,0.644,1.095c-0.213,0.021-0.427,0.031-0.639,0.031c-1.789,0-3.618-0.2-5.423-0.593
			c-1.302-0.3-2.909-0.786-4.794-1.447l-2.036-0.676c-0.823-0.329-1.577-0.58-2.199-0.734c-1.625-0.47-3.156-0.774-4.565-0.907
			c0.005-2.616,0.03-6.308,0.076-11.076c0.044-4.341,0.07-7.698,0.076-10.07c1.715-0.07,3.25-0.107,4.574-0.107
			c0.756,0,1.44-0.286,1.979-0.827c0.54-0.54,0.825-1.238,0.825-2.018s-0.285-1.478-0.826-2.019
			c-0.542-0.54-1.227-0.826-1.979-0.826c-1.314,0-2.849,0.036-4.572,0.106v-0.65c-0.05-5.15-0.166-9.907-0.347-14.116h0.515
			c2.372-0.049,4.28-0.077,5.725-0.077c0.754,0,1.451-0.299,2.02-0.866c0.565-0.567,0.863-1.264,0.863-2.016
			c0-0.769-0.308-1.463-0.895-2.01c-0.564-0.521-1.252-0.797-1.988-0.797c-1.508,0-3.482,0.028-5.903,0.078l-1.201,0.001
			c-4.532,0.153-7.952,0.18-10.165,0.077l-0.051-0.001c-0.739,0-1.427,0.276-1.987,0.798c-0.568,0.527-0.892,1.201-0.933,1.946
			c-0.044,0.764,0.219,1.473,0.756,2.05c0.543,0.585,1.264,0.896,2.055,0.896c0.001,0,0.002,0,0.002,0
			c1.598,0.044,3.444,0.05,5.498,0.02c0.184,4.258,0.3,9.001,0.348,14.107v0.825c-2.268,0.125-3.982,0.21-5.117,0.252
			c-0.768,0-1.461,0.308-2.008,0.896c-0.521,0.562-0.797,1.25-0.797,1.989c0,0.773,0.311,1.469,0.893,2.004
			c0.56,0.524,1.246,0.8,2.028,0.8c0.001,0,0.002,0,0.003,0c1.195-0.045,2.86-0.126,4.996-0.245
			c-0.007,2.338-0.032,5.573-0.076,9.702c-0.046,5.029-0.072,8.908-0.076,11.635c-2.785,0.695-5.78,2.119-8.916,4.242l-0.104,0.079
			c-0.541,0.468-0.896,1.06-1.052,1.758c-0.172,0.773-0.013,1.523,0.459,2.169c0.438,0.597,1.05,0.997,1.772,1.159
			c0.743,0.164,1.483,0.034,2.18-0.402c3.006-2.068,5.756-3.315,8.17-3.704c1.798-0.284,3.883-0.084,6.193,0.589
			c0.508,0.152,1.146,0.358,1.85,0.591c0.542,0.216,1.229,0.454,2.064,0.714c2.1,0.736,3.921,1.271,5.389,1.585
			c2.25,0.536,4.504,0.807,6.701,0.807c2.585,0,5.033-0.739,7.276-2.196c1.257-0.816,2.115-1.989,2.553-3.487
			c0.447-1.533,0.282-2.995-0.495-4.357C134.839,122.908,133.411,121.892,131.704,121.703z"/>
		<path fill="#0071BC" d="M164.106,77.682c-2.836-0.692-6.701-0.937-11.49-0.729c-1.245,0.051-2.906,0.129-5.013,0.234
			c-2.577,0.205-4.402,0.308-5.427,0.308l-0.125,0.007c-0.718,0.082-1.342,0.385-1.855,0.897c-0.556,0.556-0.827,1.274-0.785,2.078
			c0.041,0.758,0.339,1.435,0.863,1.959c0.557,0.557,1.251,0.807,2.034,0.748c1.126-0.003,2.991-0.106,5.694-0.313
			c0.229-0.016,0.443-0.03,0.646-0.041c0.278,4.45,0.447,9.501,0.503,15.021c-0.822,0.065-1.499,0.115-2.004,0.149
			c-0.768,0-1.462,0.308-2.01,0.894c-0.538,0.582-0.8,1.291-0.756,2.052c0.042,0.746,0.363,1.417,0.928,1.941
			c0.559,0.521,1.244,0.799,2.055,0.799c0.003,0,0.007,0,0.011,0c0.505-0.034,1.099-0.078,1.778-0.134
			c-0.013,2.582-0.063,6.317-0.152,11.128c-0.138,5.709-0.215,10.178-0.23,13.314c-2.511,0.027-4.661-0.002-6.438-0.093
			c-0.806,0-1.517,0.286-2.058,0.827c-0.523,0.522-0.821,1.186-0.863,1.919c-0.042,0.761,0.22,1.471,0.759,2.05
			c0.542,0.583,1.234,0.892,1.955,0.892c0.001,0,0.002,0,0.004,0c1.598,0.069,3.6,0.104,5.978,0.104c1.17,0,2.431-0.008,3.778-0.025
			c0.376,0,0.971-0.028,1.727-0.078c3.047-0.052,5.293-0.077,6.738-0.077c0.753,0,1.438-0.286,1.98-0.827
			c0.54-0.541,0.826-1.239,0.826-2.018c0-0.777-0.285-1.475-0.827-2.019c-0.542-0.54-1.227-0.826-1.979-0.826
			c-1.356,0-3.325,0.022-5.89,0.064c0.016-3.073,0.093-7.462,0.23-13.083c0.09-5.076,0.142-8.981,0.153-11.636
			c0.446-0.016,0.885-0.024,1.313-0.024c0.756,0,1.441-0.286,1.98-0.828c0.54-0.541,0.825-1.238,0.825-2.017
			c0-0.777-0.285-1.474-0.827-2.019c-0.542-0.54-1.227-0.826-1.979-0.826c-0.427,0-0.868,0.008-1.319,0.024
			c-0.06-5.458-0.228-10.481-0.5-14.952c3.529-0.066,6.349,0.169,8.413,0.707c0.726,0.163,1.45,0.059,2.101-0.307
			c0.683-0.386,1.135-0.996,1.309-1.768c0.161-0.724,0.054-1.448-0.311-2.096C165.483,78.415,164.911,77.946,164.106,77.682z"/>
		<path fill="#0071BC" d="M205.718,81.768h-0.079c-0.021-0.704-0.295-1.359-0.797-1.901c-0.544-0.585-1.238-0.895-2.008-0.895
			l-0.103,0.001c-7.434-0.358-17.082-0.568-28.68-0.623c-0.329-0.104-0.68-0.156-1.042-0.156l-0.126,0.008
			c-0.737,0.084-1.384,0.429-1.872,0.998c-0.493,0.575-0.718,1.268-0.652,2.007c-0.003,0.322-0.027,0.71-0.072,1.158l-0.006,0.11
			c0,0.102-0.022,0.239-0.057,0.408l-0.019,0.145c-0.055,0.86-0.08,1.505-0.08,1.934c0,0.74,0.277,1.429,0.798,1.988
			c1.084,1.168,3.004,1.173,4.094,0c0.522-0.563,0.798-1.25,0.798-1.988c0-0.183,0.015-0.491,0.042-0.923
			c3.647,0.003,6.936,0.024,9.803,0.062c-0.004,3.825-0.027,8.354-0.069,13.589h-1.786c-0.805,0-1.517,0.286-2.055,0.826
			c-0.542,0.54-0.828,1.224-0.828,1.979c0,0.741,0.276,1.43,0.798,1.989c0.543,0.585,1.264,0.895,2.085,0.895h1.769
			c-0.013,0.714-0.035,1.511-0.068,2.399v0.15c-0.049,9.697-0.074,17.193-0.077,22.486c-1.583-0.056-3.081-0.148-4.458-0.272
			c-0.768-0.078-1.484,0.143-2.072,0.646c-0.574,0.492-0.919,1.158-0.998,1.923c-0.084,0.791,0.141,1.521,0.647,2.112
			c0.489,0.568,1.137,0.913,1.899,0.998c2.355,0.21,5.211,0.314,8.275,0.314c0.534,0.025,1.189,0.04,1.961,0.04
			c0.759,0,1.628-0.013,2.599-0.039h3.572c0.804,0,1.515-0.286,2.058-0.827c0.54-0.54,0.825-1.238,0.825-2.018
			s-0.285-1.478-0.826-2.019c-0.542-0.54-1.253-0.826-2.057-0.826h-5.737c0.003-5.291,0.028-12.795,0.077-22.512l-0.001-0.114
			c0.033-0.892,0.057-1.706,0.068-2.441h1.71c0.819,0,1.54-0.309,2.084-0.894c0.522-0.562,0.799-1.25,0.799-1.99
			c0-0.754-0.286-1.438-0.827-1.979c-0.542-0.54-1.253-0.826-2.056-0.826h-1.69c0.04-5.203,0.063-9.691,0.067-13.463
			c3.015,0.091,5.943,0.195,8.735,0.312c-0.082,0.659,0.068,1.293,0.438,1.842c0.406,0.615,0.979,1.028,1.684,1.205
			c0.746,0.17,1.49,0.039,2.143-0.373c0.634-0.396,1.076-0.958,1.313-1.669l0.046-0.195c0.062-0.442,0.064-1.15,0.011-2.173V81.768z
			"/>
		<path fill="#0071BC" d="M245.327,81.768h-0.078c-0.021-0.705-0.295-1.36-0.797-1.901c-0.544-0.585-1.238-0.895-2.008-0.895
			l-0.102,0.001c-7.435-0.358-17.083-0.568-28.68-0.623c-0.33-0.104-0.681-0.156-1.044-0.156l-0.125,0.008
			c-0.736,0.084-1.384,0.429-1.871,0.997c-0.493,0.574-0.719,1.267-0.654,2.008c-0.003,0.321-0.026,0.71-0.072,1.158l-0.005,0.11
			c0,0.102-0.023,0.239-0.057,0.408l-0.02,0.146c-0.053,0.86-0.079,1.504-0.079,1.933c0,0.739,0.276,1.428,0.798,1.988
			c1.083,1.168,3,1.173,4.095,0c0.521-0.563,0.797-1.25,0.797-1.988c0-0.183,0.015-0.491,0.042-0.923
			c3.647,0.003,6.936,0.024,9.802,0.062c-0.003,3.825-0.026,8.354-0.068,13.589h-1.786c-0.806,0-1.518,0.286-2.055,0.826
			c-0.541,0.54-0.828,1.224-0.828,1.979c0,0.741,0.277,1.43,0.798,1.989c0.542,0.585,1.263,0.895,2.085,0.895h1.768
			c-0.012,0.714-0.034,1.511-0.067,2.399v0.15c-0.049,9.697-0.074,17.193-0.077,22.486c-1.584-0.056-3.082-0.148-4.459-0.272
			c-0.762-0.078-1.482,0.143-2.072,0.647c-0.573,0.492-0.919,1.157-0.998,1.923c-0.082,0.792,0.142,1.521,0.648,2.111
			c0.489,0.568,1.137,0.913,1.899,0.998c2.341,0.208,5.123,0.314,8.218,0.314c0.019,0,0.038,0,0.058,0
			c0.533,0.025,1.19,0.04,1.961,0.04c0.758,0,1.627-0.013,2.599-0.039h3.572c0.803,0,1.515-0.286,2.058-0.827
			c0.54-0.54,0.825-1.238,0.825-2.018s-0.285-1.478-0.827-2.019c-0.541-0.54-1.253-0.826-2.056-0.826h-5.737
			c0.003-5.291,0.028-12.795,0.077-22.512l-0.001-0.114c0.033-0.892,0.057-1.706,0.068-2.441h1.71c0.819,0,1.54-0.309,2.084-0.892
			c0.522-0.563,0.799-1.251,0.799-1.991c0-0.755-0.286-1.438-0.827-1.979c-0.541-0.54-1.252-0.826-2.056-0.826h-1.691
			c0.041-5.203,0.064-9.691,0.068-13.463c3.015,0.091,5.944,0.195,8.736,0.312c-0.083,0.659,0.067,1.292,0.438,1.843
			c0.407,0.614,0.979,1.028,1.683,1.204c0.747,0.169,1.489,0.04,2.145-0.374c0.634-0.396,1.075-0.958,1.312-1.668l0.046-0.195
			c0.063-0.442,0.065-1.15,0.011-2.173V81.768z"/>
		<path fill="#0071BC" d="M287.503,121.703c-1.703-0.264-3.201,0.26-4.319,1.512c-1.278,1.412-1.56,3.055-0.822,4.726
			c0.163,0.398,0.378,0.764,0.644,1.095c-0.214,0.021-0.427,0.031-0.64,0.031c-1.788,0-3.617-0.2-5.423-0.593
			c-1.302-0.3-2.908-0.786-4.794-1.447l-2.036-0.676c-0.824-0.33-1.578-0.58-2.199-0.734c-1.625-0.47-3.156-0.774-4.565-0.907
			c0.005-2.616,0.03-6.308,0.076-11.076c0.044-4.341,0.07-7.698,0.076-10.07c1.716-0.07,3.25-0.107,4.575-0.107
			c0.756,0,1.44-0.287,1.978-0.826c0.541-0.541,0.827-1.238,0.827-2.019s-0.286-1.478-0.827-2.019
			c-0.541-0.54-1.226-0.826-1.978-0.826c-1.315,0-2.85,0.036-4.574,0.106v-0.65c-0.049-5.137-0.165-9.894-0.346-14.116h0.516
			c2.371-0.049,4.279-0.077,5.724-0.077c0.755,0,1.452-0.299,2.02-0.865c0.565-0.567,0.864-1.264,0.864-2.017
			c0-0.77-0.31-1.464-0.895-2.009c-0.564-0.521-1.252-0.798-1.989-0.798c-1.507,0-3.483,0.028-5.902,0.078l-1.202,0.001
			c-4.533,0.153-7.951,0.179-10.164,0.077l-0.051-0.001c-0.74,0-1.428,0.276-1.988,0.798c-0.568,0.526-0.891,1.2-0.934,1.946
			c-0.043,0.764,0.219,1.473,0.757,2.05c0.542,0.585,1.264,0.896,2.056,0.896c0,0,0.001,0,0.002,0
			c1.597,0.044,3.442,0.05,5.498,0.02c0.183,4.262,0.299,9.006,0.347,14.107v0.825c-2.267,0.125-3.981,0.21-5.117,0.252
			c-0.767,0-1.46,0.308-2.008,0.896c-0.521,0.562-0.797,1.25-0.797,1.988c0,0.772,0.311,1.468,0.893,2.005
			c0.561,0.522,1.247,0.799,2.028,0.799c0.001,0,0.002,0,0.003,0c1.195-0.045,2.86-0.126,4.996-0.245
			c-0.007,2.338-0.032,5.573-0.076,9.703c-0.046,5.028-0.071,8.907-0.076,11.634c-2.785,0.695-5.78,2.119-8.917,4.242l-0.103,0.079
			c-0.542,0.469-0.896,1.06-1.052,1.757c-0.172,0.773-0.014,1.523,0.459,2.17c0.438,0.597,1.05,0.997,1.773,1.159
			c0.745,0.167,1.482,0.034,2.179-0.402c3.006-2.068,5.755-3.315,8.171-3.704c1.797-0.284,3.882-0.084,6.191,0.589
			c0.509,0.152,1.147,0.358,1.851,0.591c0.542,0.216,1.229,0.454,2.064,0.714c2.102,0.737,3.923,1.271,5.39,1.585
			c2.249,0.536,4.503,0.807,6.7,0.807c2.585,0,5.033-0.739,7.276-2.196c1.258-0.816,2.116-1.989,2.553-3.486
			c0.447-1.534,0.283-2.997-0.495-4.358C290.638,122.907,289.211,121.892,287.503,121.703z"/>
		<path fill="#0071BC" d="M339.214,123.291c-0.401-0.639-0.979-1.083-1.67-1.286c-0.73-0.213-1.486-0.109-2.183,0.302
			c-0.701,0.411-1.161,1.031-1.315,1.736c-0.622,2.217-2.432,3.721-5.533,4.598c-2.82,0.793-6.879,1.042-12.098,0.736
			c-1.473-0.043-3.386-0.168-5.697-0.372c-0.047-10.082-0.096-18.753-0.143-26.015h6.803c0.057,0.374,0.112,0.721,0.166,1.028
			c0.081,0.827,0.463,1.512,1.104,1.983c0.625,0.458,1.354,0.631,2.11,0.507c0.745-0.125,1.377-0.517,1.83-1.133
			c0.443-0.605,0.635-1.314,0.55-2.084c-0.252-1.761-0.431-3.964-0.532-6.549c-0.007-0.759-0.315-1.445-0.895-1.983
			c-0.579-0.536-1.303-0.791-2.085-0.757c-0.775,0.041-1.451,0.351-1.953,0.896c-0.495,0.537-0.756,1.236-0.756,2.024
			c0,0.127,0.001,0.254,0.004,0.379h-6.443c-0.051-4.713-0.142-9.33-0.269-13.757c1.039-0.121,2.14-0.301,3.282-0.537
			c1.316-0.263,3.095-0.714,5.266-1.333c2.134-0.559,3.646-0.919,4.554-1.081c1.498-0.349,2.782-0.576,3.785-0.674
			c1.396-0.094,2.557,0.048,3.478,0.419l-0.027,0.04c-0.771,1.122-0.948,2.329-0.493,3.537c0.443,1.04,1.291,1.743,2.402,2.021
			c0.682,0.205,1.403,0.24,2.154,0.103c2.596-0.502,3.427-2.147,3.667-3.44c0.327-1.772-0.483-3.62-2.421-5.5
			c-2.239-2.122-5.307-3.097-9.157-2.859c-1.297,0.108-2.866,0.378-4.664,0.801c-0.885,0.208-2.445,0.598-4.688,1.172
			c-2.111,0.554-3.795,0.968-4.982,1.227c-5.199,1.024-9.22,0.512-11.889-1.464c-0.589-0.506-1.318-0.733-2.11-0.646
			c-0.8,0.083-1.47,0.464-1.938,1.104c-0.454,0.623-0.63,1.362-0.508,2.139c0.123,0.78,0.506,1.418,1.077,1.826
			c2.174,1.667,4.675,2.702,7.519,3.083c0.131,4.484,0.223,9.125,0.273,13.822h-4.717c-0.755,0-1.439,0.286-1.979,0.826
			c-0.541,0.54-0.826,1.238-0.826,2.018c0,0.782,0.286,1.48,0.823,2.016c0.539,0.542,1.225,0.829,1.982,0.829h4.813
			c0.047,7.154,0.095,15.653,0.143,25.496c-0.503-0.046-0.961-0.085-1.374-0.115c-1.992-0.155-3.606-0.211-4.854-0.153
			c-0.789,0.078-1.441,0.391-1.94,0.93c-0.512,0.554-0.76,1.261-0.717,2.044c0.04,0.77,0.331,1.43,0.863,1.96
			c0.572,0.572,1.322,0.829,2.112,0.748c0.982-0.047,2.372,0.003,4.138,0.153c0.718,0.053,1.616,0.129,2.797,0.237
			c0.261,0,0.966,0.04,2.839,0.227c3.015,0.312,5.473,0.496,7.276,0.546c1.426,0.078,2.782,0.117,4.069,0.117
			c3.941,0,7.227-0.363,9.805-1.087c5.138-1.453,8.32-4.353,9.44-8.553C339.741,124.764,339.649,123.988,339.214,123.291z"/>
	</g>
	<g>
		<g>
			<path fill="#4D4D4D" d="M104.78,203.192c-1.617-1.36-3.659-2.551-6.125-3.573c-1.447-0.51-3.531-1.232-6.252-2.169h-0.128
				c-4.083-1.359-6.849-2.466-8.294-3.317c-1.872-1.19-3.021-2.636-3.445-4.338c-0.682-2.807-0.596-5.188,0.256-7.146
				c0.766-1.446,1.913-2.466,3.444-3.063c1.787-0.766,3.742-0.786,5.87-0.063c2.125,0.724,3.997,2.063,5.614,4.019
				c0.339,0.341,0.722,0.638,1.148,0.893c0,2.042,0,3.701,0,4.977s0.466,2.382,1.403,3.317c0.936,0.938,2.062,1.404,3.382,1.404
				c1.317,0,2.444-0.466,3.381-1.404c0.936-0.935,1.403-2.042,1.403-3.317c0-1.445-0.044-3.614-0.127-6.508c0-1.104,0-1.914,0-2.424
				c0-4.167,0.042-7.528,0.127-10.08c0.084-1.276-0.318-2.403-1.212-3.381c-0.894-0.977-2-1.51-3.317-1.595
				c-1.319-0.084-2.469,0.318-3.445,1.212c-0.979,0.893-1.511,2.021-1.595,3.381c0,0.682-0.044,1.362-0.128,2.042
				c-5.275-2.977-10.591-3.445-15.949-1.404c-3.914,1.532-6.763,4.169-8.549,7.911c-1.873,3.914-2.214,8.422-1.021,13.525
				c1.021,4.255,3.572,7.656,7.656,10.208c1.445,0.851,3.189,1.658,5.231,2.424c1.189,0.426,2.935,1.021,5.231,1.786l0.128,0.128
				c4.763,1.447,7.911,2.807,9.441,4.083c1.956,1.532,2.85,3.828,2.68,6.891c-0.086,2.552-1.106,4.424-3.062,5.614
				c-2.213,1.276-5.104,1.703-8.677,1.276c-3.573-0.339-6.722-1.424-9.443-3.254c-2.724-1.829-4.296-3.892-4.721-6.189
				c-0.086-0.339-0.172-0.638-0.255-0.893c0-1.36,0.042-2.85,0.127-4.466c0-1.36-0.446-2.508-1.34-3.445
				c-0.893-0.935-1.999-1.446-3.316-1.531c-1.32-0.084-2.469,0.34-3.445,1.276c-0.979,0.937-1.468,2.041-1.468,3.317
				c-0.341,8.677-0.172,15.483,0.511,20.416c0.169,1.362,0.766,2.446,1.786,3.254s2.211,1.126,3.572,0.957
				c1.104-0.171,2.042-0.638,2.808-1.403c0.766-0.766,1.19-1.701,1.275-2.808c3.912,2.383,8.209,3.828,12.888,4.338
				c5.614,0.594,10.419-0.255,14.419-2.552c5.019-2.891,7.655-7.357,7.911-13.398C111.499,211.741,109.374,206.765,104.78,203.192z"
				/>
			<path fill="#4D4D4D" d="M173.108,225.139c-1.148-0.765-2.404-0.977-3.765-0.637c-1.106,0.171-1.914,0.085-2.424-0.255
				c-0.597-0.425-1.148-1.318-1.659-2.68c-1.106-3.062-1.659-8.081-1.659-15.056c0-1.956,0.085-4.636,0.256-8.039
				c0.17-5.274,0.212-8.805,0.128-10.591c0.084-2.891-0.683-5.997-2.298-9.315c-2.637-5.614-6.593-9.143-11.866-10.59
				c-4.424-1.19-8.848-0.68-13.27,1.531c-4.339,2.213-7.146,5.317-8.422,9.314c-1.703,5.021-0.427,9.401,3.828,13.143
				c1.021,0.937,2.211,1.383,3.572,1.339c1.36-0.042,2.509-0.574,3.445-1.595c0.936-1.021,1.359-2.233,1.276-3.637
				c-0.086-1.404-0.638-2.552-1.659-3.445c-1.021-0.893-1.361-1.806-1.021-2.743c0.425-1.36,1.614-2.552,3.572-3.573
				c2.042-1.021,4.083-1.276,6.125-0.766c2.297,0.682,4.125,2.424,5.487,5.232c0.935,1.958,1.403,3.616,1.403,4.976
				c-0.086,0-0.128,0.044-0.128,0.128v0.127c0,0.851-0.299,1.617-0.893,2.297c-0.766,0.852-2,1.744-3.7,2.68
				c-1.276,0.682-3.318,1.617-6.126,2.807l-0.255,0.127c-0.255,0.086-0.49,0.172-0.701,0.255c-0.214,0.085-0.363,0.127-0.447,0.127
				c-4.934,2.042-8.549,3.914-10.845,5.614c-4.17,3.063-6.594,6.807-7.273,11.229c-0.682,3.828-0.128,7.486,1.658,10.973
				c1.359,2.808,3.273,5.104,5.742,6.891c3.063,2.296,6.38,3.509,9.952,3.636c3.573,0.128,6.933-0.745,10.081-2.616
				c2.125-1.19,4.039-2.721,5.741-4.593c1.19,2.127,2.68,3.828,4.466,5.104c2.808,1.87,6.125,2.424,9.953,1.659
				c1.276-0.255,2.297-0.958,3.063-2.105c0.766-1.148,1.021-2.402,0.766-3.765C174.959,226.97,174.257,225.904,173.108,225.139z
				 M153.267,207.53c-0.086,3.318-0.383,6.083-0.893,8.294c-0.342,1.362-1.064,2.765-2.17,4.21
				c-1.106,1.447-2.424,2.596-3.955,3.445c-3.234,1.873-6.296,1.703-9.188-0.51c-1.106-0.849-1.999-1.914-2.68-3.19
				c-0.852-1.615-1.106-3.274-0.766-4.977c0.256-1.786,1.36-3.401,3.318-4.849c1.7-1.19,4.636-2.679,8.804-4.465
				c0.084,0,0.233-0.042,0.447-0.128c0.211-0.083,0.446-0.169,0.701-0.255l0.255-0.127c2.722-1.19,4.763-2.125,6.125-2.807
				C153.267,204.213,153.267,206,153.267,207.53z"/>
			<path fill="#4D4D4D" d="M195.757,155.343c0.083,1.106,0.169,1.958,0.255,2.552c0.169,1.362,0.766,2.446,1.786,3.254
				c1.021,0.81,2.189,1.148,3.509,1.021c1.318-0.128,2.381-0.702,3.19-1.723c0.807-1.021,1.168-2.211,1.084-3.573
				c-0.085-0.511-0.171-1.276-0.255-2.297v-0.127c-0.085-0.766-0.128-1.36-0.128-1.786c-0.171-1.276-0.745-2.339-1.723-3.19
				c-0.979-0.85-2.127-1.212-3.444-1.085c-1.319,0.128-2.404,0.702-3.254,1.723c-0.852,1.021-1.234,2.169-1.148,3.445
				c0.084,0.341,0.128,0.894,0.128,1.659V155.343z"/>
			<path fill="#4D4D4D" d="M211.196,224.118c-1.617-0.083-3.318-0.169-5.104-0.255c0-0.169,0-0.297,0-0.383
				c0-2.38,0.042-6.507,0.128-12.377c0.169-11.057,0.255-19.606,0.255-25.647c0-3.912-0.044-7.612-0.127-11.101
				c-0.086-1.104-0.447-2.062-1.085-2.871c-0.639-0.808-1.468-1.34-2.488-1.595c-0.596-0.169-1.192-0.255-1.787-0.255l-3.7,0.383
				c-1.192,0.085-2.51,0.044-3.955-0.128c-1.276-0.169-2.424,0.172-3.445,1.021c-1.021,0.851-1.595,1.936-1.722,3.253
				c-0.128,1.32,0.211,2.488,1.02,3.509s1.893,1.617,3.254,1.787c1.615,0.086,3.063,0.127,4.339,0.127
				c0.083,1.873,0.127,3.828,0.127,5.87c0,5.956-0.085,14.463-0.255,25.52c-0.085,5.869-0.127,9.996-0.127,12.377
				c0,0.171,0,0.382,0,0.637c-2.383,0.086-4.766,0.214-7.146,0.383c-1.275,0.086-2.34,0.638-3.189,1.659
				c-0.852,1.021-1.234,2.191-1.148,3.509c0.084,1.32,0.639,2.404,1.659,3.254s2.169,1.232,3.444,1.148
				c7.229-0.596,14.037-0.682,20.416-0.255c1.275,0.083,2.425-0.319,3.445-1.212c1.021-0.894,1.573-1.998,1.658-3.318
				c0.085-1.318-0.318-2.466-1.211-3.445C213.557,224.736,212.472,224.204,211.196,224.118z"/>
			<path fill="#4D4D4D" d="M249.219,223.225c-1.703-0.169-3.445-0.255-5.231-0.255c0-4.422-0.044-11.439-0.128-21.054
				c-0.255-21.01-0.255-37.215,0-48.615v-0.127c0.255-0.595,0.339-1.232,0.255-1.914c-0.085-1.36-0.66-2.466-1.723-3.318
				c-1.064-0.85-2.232-1.19-3.509-1.021c-0.682,0.086-1.702,0.127-3.063,0.127c-1.192,0.085-2.085,0.127-2.679,0.127
				c-1.531,0.172-2.936,0.383-4.211,0.638c-1.276,0.341-2.255,1.065-2.936,2.169c-0.682,1.106-0.873,2.296-0.574,3.572
				c0.298,1.276,1.021,2.277,2.17,2.999c1.147,0.724,2.36,0.916,3.637,0.574c0.68-0.169,1.53-0.297,2.552-0.382
				c0.169,0,0.339,0,0.511,0c-0.256,10.208-0.256,25.308,0,45.297c0.083,9.698,0.127,16.76,0.127,21.182
				c-2.383,0.255-4.51,0.638-6.38,1.148c-1.275,0.427-2.233,1.212-2.871,2.36c-0.638,1.148-0.786,2.361-0.446,3.637
				c0.339,1.276,1.084,2.233,2.233,2.871c1.147,0.638,2.36,0.786,3.636,0.447c2.125-0.596,4.805-0.978,8.039-1.148
				c0.17,0,0.383,0,0.638,0c0.339,0,0.681-0.042,1.021-0.128c2.722,0,5.402,0.128,8.039,0.383c1.275,0.084,2.424-0.275,3.445-1.084
				c1.021-0.808,1.595-1.87,1.723-3.19c0.127-1.318-0.235-2.488-1.085-3.509C251.558,223.99,250.494,223.396,249.219,223.225z"/>
			<path fill="#4D4D4D" d="M307.147,178.055c0.935-0.935,1.404-2.061,1.404-3.381c0-1.318-0.47-2.444-1.404-3.381
				c-0.852-0.85-1.936-1.296-3.254-1.34c-1.32-0.042-2.446,0.363-3.381,1.212c-6.125-4.167-11.953-5.018-17.481-2.551
				c-5.614,2.468-9.869,7.869-12.76,16.205c-2.552,7.231-3.573,14.973-3.063,23.223c0.425,8.932,2.553,16.036,6.38,21.31
				c5.273,7.229,11.484,10.292,18.63,9.187c6.294-0.938,11.483-4.893,15.566-11.867c3.912-6.635,5.742-14.375,5.487-23.223
				c-0.256-8.422-2.511-16.629-6.763-24.626C306.765,178.565,306.976,178.311,307.147,178.055z M299.491,221.821
				c-2.552,4.338-5.486,6.763-8.805,7.273c-3.233,0.51-6.337-1.276-9.313-5.359c-2.724-3.742-4.274-9.123-4.658-16.141
				c-0.383-7.018,0.489-13.545,2.616-19.586c1.955-5.784,4.466-9.314,7.528-10.591c1.359-0.594,2.808-0.68,4.339-0.255
				c0.849,0.255,1.7,0.596,2.551,1.021c-0.341,0.34-0.682,0.724-1.021,1.148c-0.937,0.937-1.361,2.064-1.275,3.382
				c0.083,1.319,0.638,2.404,1.659,3.253c0.935,0.852,1.997,1.276,3.189,1.276c1.189,0,2.211-0.382,3.062-1.148
				c2.722,5.786,4.168,11.656,4.339,17.608C303.957,210.679,302.554,216.717,299.491,221.821z"/>
			<path fill="#4D4D4D" d="M369.542,179.586c-2.041-4.252-5.658-6.974-10.846-8.167c-5.02-1.19-9.783-0.466-14.291,2.169
				c-0.255,0.086-0.51,0.214-0.766,0.383c0-0.255,0-0.51,0-0.766c-0.086-1.276-0.617-2.36-1.595-3.254
				c-0.979-0.893-2.104-1.339-3.382-1.339c-0.682,0-1.361,0.171-2.041,0.51c-1.192,0.086-3.063,0.171-5.614,0.255
				c-0.086,0-0.172,0-0.256,0c-1.616,0.086-2.807,0.128-3.572,0.128c-1.361,0.085-2.488,0.618-3.382,1.595
				c-0.893,0.979-1.297,2.127-1.212,3.445c0.084,1.32,0.595,2.424,1.531,3.318c0.935,0.893,2.083,1.297,3.445,1.211
				c0.766-0.083,1.87-0.127,3.317-0.127c0.084,0,0.17,0,0.255,0c1.276,0,2.298-0.042,3.063-0.128
				c0.083,2.552,0.127,5.275,0.127,8.167c-0.086,0.255-0.172,0.51-0.256,0.765c-0.341,1.192-0.255,2.297,0.256,3.318
				c-0.086,3.828-0.172,9.187-0.256,16.078c0,0.682,0,1.234,0,1.659c-0.086,6.635-0.171,11.783-0.255,15.439
				c-1.958,0-3.743-0.084-5.358-0.256c-1.276-0.083-2.425,0.319-3.445,1.213c-1.021,0.893-1.575,2-1.659,3.317
				c-0.086,1.32,0.298,2.468,1.148,3.445c0.85,0.977,1.956,1.509,3.317,1.595c2.553,0.169,6.336,0.255,11.356,0.255
				c0.339,0,0.552,0,0.638,0c4.764-0.085,8.422,0,10.974,0.255c1.276,0.084,2.425-0.299,3.445-1.148
				c1.021-0.85,1.573-1.934,1.659-3.254c0.083-1.318-0.299-2.488-1.148-3.509c-0.852-1.021-1.914-1.573-3.19-1.658
				c-2.297-0.17-5.021-0.297-8.166-0.383c0.083-3.573,0.169-8.633,0.255-15.184c0-0.339,0-0.894,0-1.659
				c0.17-8.167,0.256-14.419,0.256-18.757c1.189-3.062,2.934-5.315,5.231-6.763c2.381-1.276,4.849-1.614,7.4-1.021
				c2.211,0.51,3.656,1.489,4.338,2.935c0.681,1.362,0.384,3.063-0.893,5.104c-1.021,0.085-1.914,0.447-2.68,1.084
				c-0.766,0.638-1.276,1.426-1.531,2.361c-0.341,1.276-0.191,2.488,0.447,3.636c0.638,1.148,1.595,1.895,2.87,2.233
				c1.956,0.51,3.784,0.299,5.487-0.638c1.104-0.594,2.083-1.531,2.935-2.807C371.157,189.37,371.839,184.352,369.542,179.586z"/>
		</g>
	</g>
	<path fill="#0071BC" d="M250.325,347.431c-0.482-3.365-0.964-6.731-1.445-10.097c-0.405-2.831-0.55-5.88-2.532-8.121
		c-3.604-4.073-11.662-3.11-16.457-2.786c-5.354,0.361-4.411,8.651,0.945,8.29c1.417-0.096,2.835-0.168,4.254-0.16
		c-5.639,6.133-12.374,12.565-20.362,14.436c3.529-17.239,6.414-34.595,8.642-52.042c7.009,1.208,14.018,2.417,21.026,3.625
		c5.293,0.912,6.586-7.328,1.292-8.241c-7.104-1.225-14.209-2.45-21.313-3.674c0.448-3.874,0.867-7.751,1.251-11.633
		c6.116-0.308,11.97-4.345,14.052-10.239c2.746-7.776-1.818-16.436-9.25-19.44c-0.344-0.139-0.678-0.228-1.005-0.28
		c-0.315-0.136-0.655-0.25-1.039-0.314c-7.885-1.338-16.371,3.48-18.171,11.565c-1.428,6.413,1.751,13.284,7.252,16.641
		c-0.4,4.099-0.844,8.193-1.316,12.283c-7.226-1.246-14.453-2.492-21.68-3.737c-5.292-0.913-6.585,7.328-1.291,8.241
		c7.322,1.262,14.646,2.525,21.969,3.787c-2.292,17.972-5.279,35.847-8.951,53.596c-7.56-1.618-12.061-8.795-16.568-15.313
		c0.556,0.083,1.111,0.166,1.668,0.248c5.307,0.79,6.61-7.449,1.291-8.24c-4.54-0.676-9.081-1.352-13.621-2.027
		c-1.692-0.252-3.832,0.69-4.447,2.402c-1.368,3.805-2.735,7.609-4.104,11.414c-1.807,5.026,5.786,8.49,7.604,3.437
		c0.748-2.083,1.498-4.167,2.246-6.251c8.556,9.535,13.123,22.288,28.077,22.967c13.72,0.624,24.033-8.143,32.849-17.567
		c0.383,2.743,0.486,5.66,0.847,8.178C242.794,353.674,251.089,352.766,250.325,347.431z M227.083,254.992
		c7.974,3.333,5.099,15.928-3.761,13.52C214.513,266.117,218.405,253.527,227.083,254.992z"/>
	<g>
		<circle fill="#0071BC" cx="365.023" cy="83.862" r="9.658"/>
		<circle fill="#00A99D" cx="365.023" cy="111.594" r="9.658"/>
		<circle fill="#0071BC" cx="365.023" cy="139.327" r="9.658"/>
	</g>
	<g>
		<circle fill="#0071BC" cx="66.323" cy="83.862" r="9.658"/>
		<circle fill="#00A99D" cx="66.323" cy="111.594" r="9.658"/>
		<circle fill="#0071BC" cx="66.323" cy="139.327" r="9.658"/>
	</g>
	<path fill="#00A99D" d="M372.531,307.59c-9.989,6.74-22.895,7.365-33.047,2.247c4.548-4.096,8.413-8.878,10.906-13.146
		c5.343-9.146,9.011-20.935,5.236-31.323c-3.024-8.324-11.767-15.104-20.913-13.42c-20.249,3.73-22.297,32.282-15.388,47.259
		c1.985,4.302,4.708,7.984,7.934,11.036c-2.931,1.524-6.008,2.313-9.067,1.856c-9.012-1.345-11.337-12.775-10.893-20.301
		c0.58-9.801,4.526-20.106,2.146-29.948c-1.72-7.108-7.893-11.666-15.278-10.099c-9.103,1.931-13.038,10.5-16.075,18.375
		c-1.734,4.496,5.498,6.443,7.216,1.989c1.832-4.751,6.917-16.882,14.29-12.659c6.021,3.449,2.354,16.912,1.543,22.013
		c-1.614,10.14-2.633,20.725,3.393,29.714c7.737,11.547,18.875,9.841,28.566,3.58c12.751,7.944,30.057,8.162,43.207-0.711
		C380.278,311.372,376.538,304.886,372.531,307.59z M326.539,296.975c-3.835-7.511-4.749-16.63-2.139-24.685
		c3.228-9.959,15.156-19.289,22.8-7.207c5.702,9.01,0.873,21.357-4.268,29.466c-2.187,3.45-5.519,7.77-9.446,11.277
		C330.715,303.44,328.335,300.491,326.539,296.975z"/>
	<path fill="#00A99D" d="M55.692,314.051c13.15,8.874,30.457,8.656,43.207,0.711c9.692,6.261,20.83,7.967,28.567-3.58
		c6.024-8.99,5.007-19.574,3.393-29.714c-0.812-5.101-4.479-18.564,1.542-22.013c7.374-4.223,12.458,7.908,14.291,12.659
		c1.718,4.454,8.95,2.507,7.216-1.989c-3.037-7.875-6.974-16.444-16.076-18.375c-7.385-1.566-13.558,2.991-15.277,10.099
		c-2.381,9.842,1.566,20.147,2.146,29.948c0.445,7.526-1.88,18.956-10.893,20.301c-3.059,0.457-6.136-0.332-9.066-1.856
		c3.225-3.052,5.948-6.734,7.934-11.036c6.909-14.978,4.861-43.529-15.389-47.259c-9.146-1.685-17.888,5.096-20.912,13.42
		c-3.774,10.388-0.107,22.177,5.235,31.323c2.494,4.269,6.358,9.05,10.907,13.146c-10.153,5.119-23.059,4.493-33.047-2.247
		C55.463,304.886,51.722,311.372,55.692,314.051z M98.515,305.827c-3.928-3.507-7.26-7.827-9.447-11.277
		c-5.14-8.109-9.969-20.456-4.268-29.466c7.645-12.082,19.573-2.752,22.801,7.207c2.609,8.054,1.696,17.173-2.139,24.685
		C103.666,300.491,101.286,303.44,98.515,305.827z"/>
</g>
</svg>
