<?xml version="1.0" encoding="utf-8"?>
<!-- Generator: Adobe Illustrator 16.0.0, SVG Export Plug-In . SVG Version: 6.00 Build 0)  -->
<!DOCTYPE svg PUBLIC "-//W3C//DTD SVG 1.1//EN" "http://www.w3.org/Graphics/SVG/1.1/DTD/svg11.dtd">
<svg version="1.1" id="Calque_1" xmlns="http://www.w3.org/2000/svg" xmlns:xlink="http://www.w3.org/1999/xlink" x="0px" y="0px"
	 width="432px" height="432px" viewBox="0 0 432 432" enable-background="new 0 0 432 432" xml:space="preserve">
<g>
	<g>
		<g>
			<path fill="#EE5B33" d="M111.039,172.882c-0.361-0.338-0.777-0.507-1.25-0.507s-0.878,0.18-1.216,0.541s-0.507,0.766-0.507,1.215
				c0.09,7.699,0.112,19.09,0.067,34.173c0,4.998,0,8.735,0,11.21c0,0.496,0.169,0.912,0.508,1.25
				c0.337,0.337,0.752,0.506,1.248,0.506c0.495,0,0.912-0.169,1.25-0.506c0.337-0.337,0.507-0.753,0.507-1.25
				c0-2.476,0-6.213,0-11.21c0.044-15.083,0.021-26.474-0.068-34.173C111.578,173.636,111.398,173.219,111.039,172.882z"/>
			<path fill="#EE5B33" d="M136.938,202.63c-0.383-0.314-0.81-0.449-1.283-0.405c-0.473,0.045-0.867,0.249-1.182,0.608
				c-0.315,0.361-0.451,0.788-0.405,1.283c0.405,5.043-0.631,8.982-3.106,11.819c-1.036,1.125-1.937,1.644-2.701,1.553
				c-0.767-0.044-1.554-0.63-2.364-1.756c-2.026-2.656-3.579-7.023-4.659-13.102c-0.361-1.891-0.608-3.804-0.743-5.74h0.066
				c0.136,0,0.642-0.011,1.521-0.034c0.878-0.022,1.834-0.056,2.87-0.102c1.035-0.044,1.756-0.089,2.161-0.135
				c1.892-0.044,3.399-0.135,4.524-0.27c1.622-0.135,2.678-0.338,3.174-0.608c0.406-0.225,0.698-0.563,0.879-1.013
				c0.044-0.179,0.09-0.382,0.135-0.608c0.044-0.27,0.067-0.608,0.067-1.013c0-0.72-0.046-1.621-0.135-2.702
				c-0.315-2.611-0.855-5.133-1.621-7.564c-0.991-3.151-2.252-5.492-3.782-7.023c-2.16-2.296-4.659-2.881-7.496-1.756
				c-1.712,0.721-3.084,2.207-4.119,4.458c-0.811,1.891-1.396,4.254-1.756,7.091c-0.631,5.402-0.361,11.278,0.811,17.626
				c1.17,6.618,2.926,11.481,5.268,14.587c1.529,2.026,3.219,3.096,5.064,3.208c1.846,0.112,3.67-0.821,5.471-2.803
				c3.151-3.556,4.457-8.375,3.916-14.453C137.511,203.329,137.319,202.946,136.938,202.63z M120.223,193.378
				c-0.091-2.656,0-5.11,0.271-7.361c0.584-5.042,1.823-7.924,3.714-8.645c1.351-0.541,2.567-0.247,3.646,0.878
				c1.126,1.171,2.116,3.063,2.972,5.673c0.676,2.161,1.148,4.436,1.418,6.821c0.09,0.766,0.136,1.441,0.136,2.026
				c-0.315,0.045-0.675,0.091-1.081,0.135c-1.08,0.091-2.521,0.159-4.321,0.203c-0.45,0.045-1.621,0.101-3.512,0.168
				c-1.892,0.068-2.95,0.102-3.175,0.102H120.223z"/>
			<path fill="#EE5B33" d="M154.799,185.139c-0.811,0-1.959,0.023-3.444,0.068c-0.045-3.961-0.158-7.699-0.338-11.21
				c0-0.45-0.18-0.844-0.539-1.182c-0.362-0.338-0.789-0.495-1.284-0.473c-0.495,0.023-0.901,0.214-1.215,0.574
				c-0.316,0.36-0.473,0.788-0.473,1.283c0.179,3.468,0.292,7.182,0.337,11.144c-1.306,0-2.477-0.044-3.512-0.135
				c-0.496-0.044-0.923,0.079-1.282,0.372c-0.361,0.293-0.575,0.687-0.642,1.182c-0.068,0.496,0.056,0.923,0.371,1.283
				c0.314,0.361,0.72,0.563,1.216,0.608c1.124,0.135,2.407,0.203,3.849,0.203c0,0.315,0,0.653,0,1.013
				c0.044,2.971,0.044,7.474,0,13.506c-0.045,7.069-0.066,12.472-0.066,16.208c0,0.496,0.179,0.912,0.539,1.25
				s0.777,0.506,1.25,0.506s0.877-0.18,1.215-0.54s0.507-0.765,0.507-1.216c0-3.736,0.022-9.117,0.067-16.141
				c0.045-6.078,0.045-10.603,0-13.574c0-0.405,0-0.787,0-1.148c1.485-0.044,2.634-0.067,3.444-0.067
				c0.495,0,0.912-0.169,1.25-0.506c0.338-0.338,0.506-0.754,0.506-1.25c0-0.495-0.168-0.912-0.506-1.25
				S155.294,185.139,154.799,185.139z"/>
			<path fill="#EE5B33" d="M168.644,175.347c-0.135-0.495-0.429-0.844-0.879-1.047s-0.9-0.225-1.35-0.067
				c-0.45,0.158-0.777,0.462-0.979,0.912c-0.203,0.451-0.236,0.901-0.102,1.351c0.855,2.387,1.373,4.638,1.554,6.753
				c0.271,2.612,0,4.728-0.811,6.348c-0.227,0.405-0.26,0.844-0.102,1.317c0.157,0.473,0.449,0.811,0.878,1.013
				c0.428,0.203,0.878,0.226,1.351,0.068c0.473-0.157,0.8-0.439,0.979-0.845c1.125-2.205,1.53-4.93,1.216-8.171
				C170.174,180.502,169.589,177.958,168.644,175.347z"/>
			<path fill="#EE5B33" d="M193.226,200.604c-0.632-0.9-1.554-2.161-2.77-3.782l-0.405-0.541c-0.135-0.225-0.271-0.405-0.405-0.54
				c-2.477-3.286-4.12-5.92-4.93-7.902c-1.172-2.791-1.419-5.538-0.743-8.239c0.271-1.035,0.854-1.8,1.756-2.296
				c0.854-0.405,1.688-0.337,2.499,0.203c0.99,0.675,1.732,1.564,2.229,2.667c0.494,1.104,0.832,2.623,1.013,4.559
				c0.044,0.496,0.247,0.889,0.608,1.182c0.359,0.293,0.787,0.417,1.283,0.372c0.494-0.044,0.899-0.247,1.215-0.608
				c0.314-0.36,0.428-0.787,0.338-1.283c-0.18-2.161-0.54-3.917-1.08-5.268c-0.767-1.891-1.982-3.399-3.646-4.525
				c-1.938-1.351-3.941-1.485-6.011-0.405c-1.892,0.946-3.107,2.477-3.647,4.592c-0.855,3.422-0.54,6.889,0.946,10.4
				c0.584,1.396,1.395,2.882,2.431,4.458c0.675,1.126,1.643,2.522,2.903,4.187c0.136,0.135,0.271,0.315,0.405,0.54
				c0.09,0.091,0.226,0.271,0.405,0.541c2.387,3.152,4.029,5.583,4.931,7.294c1.396,2.701,2.048,5.268,1.958,7.699
				c0,0.856-0.135,1.577-0.405,2.162c-0.855,2.025-2.408,2.903-4.659,2.633c-1.081-0.135-2.061-0.528-2.938-1.182
				c-0.877-0.652-1.496-1.452-1.856-2.397c-0.496-1.351-0.834-2.881-1.014-4.592c-0.091-0.99-0.136-2.476-0.136-4.458
				c0-0.495-0.168-0.912-0.506-1.249c-0.338-0.338-0.755-0.507-1.25-0.507s-0.91,0.168-1.249,0.507
				c-0.337,0.337-0.506,0.754-0.506,1.249c0,2.071,0.044,3.67,0.135,4.795c0.225,1.982,0.631,3.794,1.216,5.437
				c0.585,1.644,1.575,2.994,2.972,4.052c1.396,1.057,2.971,1.677,4.727,1.857c1.801,0.18,3.455-0.146,4.965-0.979
				c1.508-0.833,2.622-2.104,3.343-3.815c0.404-0.99,0.629-2.138,0.675-3.445c0.09-3.016-0.698-6.146-2.363-9.387
				C195.024,203.373,194.215,202.046,193.226,200.604z"/>
			<path fill="#EE5B33" d="M246.238,212.085c-0.136-2.296-0.429-4.231-0.878-5.808c-0.54-2.116-1.351-3.917-2.432-5.403
				c-2.252-3.061-4.75-3.872-7.496-2.431c-1.847,0.945-3.603,3.062-5.268,6.348c-0.676,1.306-1.329,2.769-1.959,4.39
				c-0.135-3.737-0.181-8.172-0.135-13.305c0.044-1.935,0.09-4.885,0.135-8.847c0.09-5.672,0.136-9.904,0.136-12.696
				c0-0.495-0.169-0.912-0.508-1.25c-0.337-0.337-0.741-0.506-1.215-0.506c-0.473,0-0.89,0.169-1.249,0.506
				c-0.361,0.337-0.54,0.754-0.54,1.25c0,2.792-0.046,7.001-0.136,12.629c-0.045,3.962-0.091,6.934-0.135,8.915
				c-0.091,9.546,0.179,17.537,0.811,23.975c0.044,0.226,0.111,0.429,0.202,0.608c0.09,0.405,0.293,0.743,0.608,1.013
				c0.313,0.27,0.697,0.405,1.147,0.405c0.449,0,0.854-0.181,1.216-0.541c0.36-0.361,0.54-0.765,0.54-1.215
				c0-1.17,0.383-3.083,1.148-5.741c0.854-3.016,1.868-5.695,3.039-8.036c1.351-2.567,2.61-4.164,3.782-4.795
				c0.449-0.27,0.854-0.337,1.215-0.203c0.585,0.181,1.193,0.721,1.824,1.621c1.44,1.981,2.34,5.11,2.701,9.387
				c0.044,0.811,0.112,2.094,0.202,3.849c0.045,1.712,0.112,2.995,0.202,3.85c0.045,0.496,0.26,0.889,0.642,1.182
				c0.383,0.292,0.812,0.427,1.284,0.405c0.473-0.023,0.866-0.226,1.182-0.608c0.314-0.382,0.449-0.821,0.405-1.317
				c-0.091-0.765-0.158-1.981-0.203-3.646C246.417,214.27,246.328,212.941,246.238,212.085z"/>
			<path fill="#EE5B33" d="M274.265,206.007c-0.046-3.242-0.067-5.628-0.067-7.159c-0.136-5.583-0.383-10.04-0.743-13.372
				c-0.496-4.592-1.283-7.878-2.363-9.86c-0.992-1.756-2.443-2.847-4.356-3.275c-1.913-0.428-3.794-0.124-5.639,0.912
				c-1.396,0.767-2.499,1.982-3.31,3.647c-0.18,0.451-0.192,0.901-0.033,1.351c0.156,0.451,0.449,0.788,0.877,1.013
				c0.428,0.226,0.879,0.248,1.352,0.067c0.473-0.18,0.799-0.473,0.979-0.878c0.496-0.99,1.104-1.688,1.824-2.094
				c1.08-0.584,2.094-0.787,3.039-0.607c0.945,0.135,1.664,0.653,2.16,1.553c0.855,1.577,1.509,4.414,1.959,8.51
				c0.36,3.242,0.608,7.609,0.742,13.102c0,1.531,0.022,3.917,0.068,7.159c0.044,2.161,0.066,3.917,0.066,5.268
				c-1.08-1.665-2.205-3.083-3.376-4.254c-2.116-2.07-4.21-3.242-6.28-3.512c-2.657-0.36-4.953,0.743-6.889,3.309
				c-0.721,0.991-1.239,2.173-1.554,3.545c-0.315,1.374-0.337,2.691-0.067,3.951c0.494,2.387,1.665,4.21,3.512,5.47
				c1.485,1.037,3.399,1.666,5.74,1.891c1.801,0.18,3.85,0.09,6.146-0.27c1.124-0.135,2.317-0.337,3.578-0.608
				c0.406,0.314,0.879,0.428,1.419,0.337h0.067h0.067c0.495-0.045,0.889-0.259,1.183-0.642c0.292-0.382,0.416-0.82,0.371-1.316
				C274.512,217.174,274.354,212.761,274.265,206.007z M262.243,218.231c-3.558-0.314-5.605-1.823-6.146-4.525
				c-0.36-1.756-0.023-3.331,1.013-4.728c1.081-1.44,2.273-2.082,3.579-1.924c1.306,0.158,2.724,1.002,4.255,2.533
				c1.486,1.441,2.813,3.219,3.984,5.335c0.495,0.901,0.922,1.779,1.283,2.634C267.061,218.231,264.405,218.457,262.243,218.231z"/>
			<path fill="#EE5B33" d="M300.501,173.05c-0.473-0.09-0.912-0.011-1.317,0.237s-0.652,0.619-0.742,1.114
				c-0.585,2.521-2.05,9.433-4.39,20.732c-0.046,0.135-0.091,0.271-0.136,0.406c-1.576,7.655-2.747,13.192-3.512,16.613
				c-0.046,0.226-0.09,0.451-0.135,0.676c-0.632-2.792-1.238-5.831-1.823-9.117c-0.541-2.926-1.307-7.429-2.297-13.507
				c-1.171-7.159-2.116-12.605-2.836-16.343c-0.091-0.45-0.338-0.811-0.742-1.081c-0.406-0.27-0.856-0.36-1.352-0.27
				c-0.496,0.091-0.867,0.337-1.114,0.743c-0.248,0.405-0.327,0.856-0.236,1.351c0.72,3.647,1.665,9.027,2.836,16.141
				c0.99,6.123,1.757,10.648,2.297,13.574c0.899,5.133,1.891,9.77,2.972,13.912c0,0.045,0.021,0.159,0.067,0.337
				c0.089,0.271,0.179,0.541,0.271,0.811v0.067v0.068l0.066,0.067v0.068v0.067v0.068l0.068,0.067v0.068v0.067v0.068l0.067,0.067
				c0.045,0.181,0.067,0.293,0.067,0.337c0.18,0.541,0.541,0.922,1.08,1.148c0.541,0.225,1.081,0.157,1.622-0.203
				c0.179-0.091,0.337-0.226,0.473-0.405c0.089-0.135,0.156-0.292,0.202-0.473c0.09-0.135,0.156-0.314,0.202-0.541
				c0.136-0.36,0.293-0.9,0.473-1.621c0.271-1.216,0.676-3.04,1.216-5.47c0.766-3.421,1.936-8.959,3.512-16.614
				c0.045-0.089,0.09-0.225,0.136-0.405c2.34-11.3,3.782-18.211,4.321-20.733c0.136-0.45,0.067-0.889-0.202-1.317
				C301.345,173.4,300.974,173.141,300.501,173.05z"/>
			<path fill="#EE5B33" d="M327.683,203.778c0-0.449-0.192-0.832-0.573-1.148c-0.384-0.314-0.811-0.449-1.283-0.405
				c-0.474,0.045-0.868,0.249-1.183,0.608c-0.314,0.361-0.45,0.788-0.404,1.283c0.404,5.043-0.632,8.982-3.107,11.819
				c-1.035,1.125-1.937,1.644-2.701,1.553c-0.767-0.044-1.554-0.63-2.363-1.756c-2.026-2.656-3.58-7.023-4.66-13.102
				c-0.361-1.891-0.607-3.804-0.743-5.74h0.067c0.135,0,0.642-0.011,1.52-0.034c0.879-0.022,1.834-0.056,2.87-0.102
				c1.035-0.044,1.756-0.089,2.161-0.135c1.892-0.044,3.399-0.135,4.525-0.27c1.621-0.135,2.678-0.338,3.174-0.608
				c0.405-0.225,0.697-0.563,0.878-1.013c0.044-0.179,0.09-0.382,0.136-0.608c0.044-0.27,0.066-0.608,0.066-1.013
				c0-0.72-0.045-1.621-0.135-2.702c-0.315-2.611-0.855-5.133-1.621-7.564c-0.99-3.151-2.252-5.492-3.781-7.023
				c-2.161-2.296-4.66-2.881-7.496-1.756c-1.713,0.721-3.085,2.207-4.12,4.458c-0.811,1.891-1.396,4.254-1.756,7.091
				c-0.63,5.402-0.36,11.278,0.811,17.626c1.17,6.618,2.926,11.481,5.268,14.587c1.53,2.026,3.219,3.096,5.065,3.208
				c1.845,0.112,3.669-0.821,5.471-2.803C326.917,214.675,328.224,209.856,327.683,203.778z M310.394,193.378
				c-0.09-2.656,0-5.11,0.271-7.361c0.585-5.042,1.823-7.924,3.714-8.645c1.352-0.541,2.567-0.247,3.647,0.878
				c1.125,1.171,2.115,3.063,2.972,5.673c0.675,2.161,1.147,4.436,1.418,6.821c0.09,0.766,0.135,1.441,0.135,2.026
				c-0.314,0.045-0.675,0.091-1.08,0.135c-1.081,0.091-2.522,0.159-4.322,0.203c-0.45,0.045-1.621,0.101-3.512,0.168
				c-1.891,0.068-2.949,0.102-3.174,0.102H310.394z"/>
		</g>
		<g>
			<path fill="#58595B" d="M77.92,248.975c2.363-0.473,5.267-0.135,7.765,0.878c2.364,0.878,3.377,1.891,3.58,2.363
				c0.608,2.364,2.903,3.782,5.268,3.242c2.363-0.608,3.85-2.971,3.241-5.335c-0.811-3.444-3.646-6.28-8.171-8.171
				c-3.782-1.553-7.969-2.296-11.953-1.823c-3.512,0.338-6.482,1.486-8.847,3.444c-2.769,2.364-4.322,5.537-4.524,9.521
				c-0.135,4.795,1.823,8.644,5.808,11.683c3.039,2.364,6.686,3.714,10.265,5.132c2.633,1.013,5.064,1.958,6.686,3.039
				c1.554,1.013,1.485,1.621,1.485,1.891c0,2.094-3.443,3.106-4.593,3.309c-5.604,1.283-11.683-0.607-12.762-2.971
				c-1.014-2.229-3.58-3.242-5.809-2.229c-2.229,1.013-3.241,3.58-2.229,5.808c1.621,3.579,5.2,6.28,10.13,7.631
				c2.229,0.608,4.524,0.945,6.888,0.945c1.959,0,3.917-0.203,5.741-0.675c3.105-0.676,5.672-1.891,7.698-3.647
				c2.566-2.229,3.781-5.065,3.714-8.374c-0.067-3.579-1.892-6.55-5.335-8.914c-2.432-1.688-5.471-2.836-8.441-3.984
				c-2.972-1.283-6.078-2.431-8.171-3.984c-1.688-1.283-2.364-2.499-2.297-4.322C73.057,252.284,73.26,249.718,77.92,248.975z"/>
			<path fill="#58595B" d="M142.548,253.297c-1.013-2.769-2.566-5.2-4.524-7.293c-3.715-3.782-8.509-5.808-13.911-5.808
				c-5.943,0-11.616,2.431-15.736,6.82c-2.093,2.161-3.646,4.727-4.793,7.631c-1.081,3.174-1.622,6.416-1.419,9.927
				c0.135,3.512,0.878,6.686,2.229,9.589c1.282,2.769,3.038,5.2,5.199,7.226c2.093,1.958,4.389,3.444,7.023,4.524
				c2.565,1.013,5.199,1.486,7.969,1.486c5.401,0,10.196-1.958,13.708-5.673c2.904-3.106,6.415-8.779,6.078-18.571
				C144.304,259.442,143.628,256.201,142.548,253.297z M132.013,275.65c-1.958,2.026-4.389,3.039-7.428,3.039
				c-6.281,0-13.17-5.132-13.709-14.519c-0.203-5.673,1.958-9.049,3.849-11.143c2.499-2.634,5.942-4.119,9.388-4.119
				c5.334,0,11.21,3.917,11.547,14.519C135.862,268.829,134.646,273.016,132.013,275.65z"/>
			<path fill="#58595B" d="M199.073,255.188c-1.013-4.862-2.498-8.374-4.524-10.602c-1.823-1.959-3.849-2.972-6.213-3.039
				c-1.688-0.068-4.187,0.337-6.618,2.701c-1.418,1.351-2.701,3.174-3.714,5.47c-0.473,0.878-0.81,1.891-1.282,3.039l-0.136-0.473
				c-1.283-5.335-2.769-8.509-4.861-10.4c-1.96-1.688-3.918-1.958-5.2-1.756c-2.229,0.203-4.12,1.418-5.741,3.647
				c-0.81,1.148-1.62,2.701-2.498,4.66l-0.271-4.187c-0.202-2.431-2.229-4.322-4.659-4.12c-2.431,0.203-4.322,2.229-4.119,4.66
				l2.565,38.493c0.203,2.364,1.959,4.052,4.322,4.12c2.364,0,4.187-1.688,4.389-4.052c0-0.067,0.744-8.104,2.162-16.545
				c1.621-9.387,3.174-14.182,4.255-16.275c0.877,2.364,2.093,6.956,3.105,16.208c0.946,8.374,1.216,16.342,1.148,16.342
				c0.067,2.364,1.958,4.254,4.322,4.322h0.067c2.363,0,4.188-1.756,4.39-4.12c0-0.067,0.54-8.171,2.093-16.545
				c1.013-4.862,1.892-8.711,3.174-11.683c1.283-3.242,2.297-4.322,2.77-4.66c0.337,0.473,1.216,1.554,2.025,4.795
				c0.811,2.904,1.351,6.686,1.621,11.48c0.54,8.171,0.067,16.005,0.067,16.072c-0.202,2.431,1.688,4.457,4.119,4.66h0.271
				c2.363,0,4.12-1.756,4.322-4.12c0-0.27,0.404-7.428,0.066-15.6C200.223,262.751,199.749,258.632,199.073,255.188z"/>
			<path fill="#58595B" d="M237.771,274.164c-1.958-1.418-4.728-0.945-6.078,1.013c-0.877,1.283-2.565,2.364-4.659,2.903
				c-2.364,0.676-4.524,0.676-6.618,0c-1.959-0.743-3.444-2.025-4.457-3.984c-0.81-1.486-1.351-3.309-1.62-5.47
				c1.89-0.067,3.781-0.135,5.604-0.337c5.133-0.338,9.859-0.743,14.722-0.27c1.283,0.067,2.363-0.271,3.377-1.148
				c0.945-0.945,1.418-2.026,1.418-3.309c-0.203-6.753-1.688-12.561-4.66-16.68c-1.417-2.026-3.106-3.647-5.199-4.93
				c-2.026-1.147-4.188-1.755-6.483-1.823c-2.228-0.067-4.456,0.473-6.686,1.554c-2.093,1.147-3.917,2.634-5.47,4.592
				c-3.242,4.052-5.064,9.657-5.537,16.342c-0.406,6.281,0.539,11.548,2.836,15.667c2.094,3.984,5.199,6.685,9.251,8.104
				c1.959,0.675,3.984,1.013,6.146,1.013c1.959,0,3.917-0.338,5.876-0.878c3.983-1.283,7.226-3.376,9.319-6.281
				C240.202,278.284,239.729,275.515,237.771,274.164z M217.851,251.744c1.485-1.891,3.105-2.836,4.929-2.836h0.068
				c1.822,0,3.376,1.013,4.794,2.971c1.013,1.418,2.094,3.647,2.634,7.158c-3.781,0-7.36,0.271-10.939,0.473
				c-1.621,0.203-3.241,0.271-4.795,0.338C215.284,255.728,216.567,253.297,217.851,251.744z"/>
			<path fill="#58595B" d="M279.778,236.955c-4.053-0.743-8.239,0.203-11.818,2.364c-1.824,1.081-3.377,2.566-4.728,4.254
				c-1.283,1.756-2.296,3.849-2.903,6.213c-1.554,5.74-1.216,12.695-0.946,19.989c0.204,4.322,0.406,8.711,0.204,13.033
				c-0.068,2.431,1.755,4.457,4.187,4.524h0.202c2.363,0,4.187-1.823,4.389-4.187c0.203-3.039,0.068-6.078,0-9.049
				c1.689,0.067,3.378,0.067,4.998,0.067c6.213,0,11.615-0.338,16.951-0.945c2.362-0.271,4.118-2.431,3.78-4.862
				c-0.271-2.431-2.431-4.12-4.861-3.849c-6.416,0.743-13.102,1.013-21.205,0.811c-0.202-5.132-0.136-9.792,0.743-13.304
				c1.283-5.065,5.942-6.956,9.656-6.416c4.795,0.743,7.361,4.93,7.023,11.345c-0.202,2.431,1.756,4.457,4.119,4.66h0.271
				c2.363,0,4.187-1.823,4.39-4.187c0.271-5.673-0.945-10.467-3.85-14.182C287.746,239.791,284.1,237.698,279.778,236.955z"/>
			<path fill="#58595B" d="M326.105,239.994h-0.067c-2.229,0-4.119,1.755-4.321,3.984c0,0.068-0.811,8.847-2.769,17.693
				c-3.242,14.789-6.484,16.545-6.754,16.815c-0.27-0.067-1.148-0.81-2.228-3.444c-1.149-2.769-2.026-6.753-2.635-11.953
				c-1.081-9.049-0.945-18.233-0.945-18.233c0-2.431-1.892-4.457-4.322-4.457c0-0.068,0-0.068-0.067-0.068
				c-2.431,0-4.321,1.958-4.39,4.322c0,0.405-0.27,9.792,1.014,19.381c0.675,5.875,1.756,10.602,3.174,14.181
				c0.878,2.364,2.025,4.254,3.376,5.74c2.363,2.499,4.728,3.106,6.416,3.309c1.823,0.067,4.254-0.203,6.889-2.566
				c1.418-1.283,2.768-3.174,3.984-5.538c0.473-0.878,0.877-1.756,1.283-2.769l0.404,6.01c0.202,2.431,2.229,4.322,4.659,4.12
				c2.431-0.203,4.322-2.229,4.12-4.66l-2.499-37.75C330.226,241.749,328.47,240.061,326.105,239.994z"/>
			<path fill="#58595B" d="M372.096,263.292c-0.677-5.875-1.756-10.603-3.175-14.182c-0.878-2.363-2.025-4.254-3.376-5.74
				c-2.364-2.499-4.728-3.106-6.416-3.309c-1.823-0.067-4.254,0.203-6.888,2.566c-1.418,1.283-2.77,3.174-3.984,5.538
				c-0.473,0.878-0.878,1.756-1.283,2.769l-0.405-6.01c-0.202-2.431-2.229-4.322-4.659-4.119c-2.432,0.202-4.322,2.229-4.12,4.659
				l2.499,37.75c0.203,2.364,1.958,4.052,4.322,4.119h0.067c2.229,0,4.119-1.755,4.321-3.984c0,0,0.811-8.914,2.77-17.693
				c3.241-14.722,6.416-16.68,6.753-16.815c0.27,0.068,1.147,0.811,2.229,3.444c1.148,2.769,2.025,6.753,2.634,11.953
				c1.08,9.05,0.945,18.233,0.945,18.233c0,2.432,1.891,4.458,4.322,4.458c0,0.067,0,0.067,0.066,0.067
				c2.432,0,4.322-1.958,4.391-4.322C373.108,282.268,373.379,272.881,372.096,263.292z"/>
		</g>
		<g>
			<path fill="#F49231" d="M112.076,307.593c-0.338-0.36-0.754-0.541-1.249-0.541c-0.496,0-0.912,0.181-1.25,0.541
				c-0.338,0.361-0.506,0.766-0.506,1.215c0,8.51,0.089,21.5,0.271,38.968c0,0.496,0.168,0.912,0.506,1.25
				c0.337,0.337,0.753,0.506,1.249,0.506s0.912-0.169,1.25-0.506c0.338-0.338,0.506-0.754,0.506-1.25
				c-0.181-17.468-0.27-30.458-0.27-38.968C112.583,308.359,112.414,307.954,112.076,307.593z"/>
			<path fill="#F49231" d="M110.962,305.229c0.495,0,0.912-0.169,1.25-0.506c0.337-0.338,0.506-0.753,0.506-1.25
				c0-0.495-0.169-0.912-0.506-1.25c-0.338-0.337-0.755-0.506-1.25-0.506c-0.496,0-0.912,0.169-1.25,0.506
				c-0.337,0.337-0.506,0.755-0.506,1.25c0,0.496,0.169,0.912,0.506,1.25C110.05,305.061,110.466,305.229,110.962,305.229z"/>
			<path fill="#F49231" d="M136.017,308.606c-0.721-3.106-1.915-5.2-3.58-6.281c-1.666-1.08-3.535-1.08-5.605,0
				c-1.441,0.721-2.836,1.937-4.188,3.647c0-0.989,0.023-2.002,0.068-3.039c0-0.449-0.169-0.854-0.507-1.215
				c-0.338-0.36-0.743-0.551-1.216-0.574c-0.473-0.022-0.889,0.135-1.249,0.473c-0.36,0.337-0.54,0.754-0.54,1.249
				c-0.135,5.043-0.112,12.81,0.067,23.299c0,0.091,0,0.181,0,0.271c0.179,9.86,0.202,17.153,0.067,21.881
				c0,0.496,0.169,0.912,0.507,1.25s0.742,0.517,1.215,0.541c0.473,0.022,0.889-0.135,1.25-0.473c0.36-0.338,0.54-0.753,0.54-1.25
				c0.136-4.728,0.112-12.066-0.067-22.017c0-0.089,0-0.179,0-0.27c-0.091-5.582-0.158-9.86-0.202-12.832
				c0.09-0.09,0.157-0.203,0.202-0.338c0.541-1.621,1.351-3.14,2.432-4.558c1.08-1.418,2.16-2.398,3.241-2.938
				c0.855-0.449,1.554-0.495,2.094-0.135c0.854,0.586,1.53,1.958,2.026,4.12c1.306,5.538,2.115,12.382,2.431,20.531
				c0.18,3.647,0.271,9.117,0.271,16.411v1.081c0,0.496,0.169,0.912,0.506,1.25c0.338,0.338,0.743,0.506,1.216,0.506
				s0.889-0.168,1.25-0.506c0.359-0.338,0.539-0.753,0.539-1.25v-1.081c0-7.338-0.09-12.876-0.269-16.613
				C138.199,321.416,137.366,314.37,136.017,308.606z"/>
			<path fill="#F49231" d="M176.198,313.401c-0.811,0-1.959,0.023-3.444,0.068c-0.046-3.961-0.159-7.699-0.338-11.21
				c0-0.45-0.181-0.845-0.54-1.182c-0.361-0.338-0.789-0.495-1.284-0.473c-0.495,0.023-0.9,0.214-1.215,0.574
				c-0.315,0.361-0.473,0.789-0.473,1.283c0.179,3.468,0.292,7.182,0.338,11.144c-1.307,0-2.477-0.044-3.512-0.135
				c-0.496-0.044-0.923,0.079-1.283,0.372c-0.36,0.293-0.574,0.687-0.642,1.182c-0.068,0.496,0.056,0.923,0.371,1.283
				c0.314,0.361,0.72,0.563,1.216,0.608c1.125,0.135,2.407,0.202,3.85,0.202c0,0.316,0,0.653,0,1.013
				c0.044,2.972,0.044,7.474,0,13.507c-0.046,7.069-0.067,12.472-0.067,16.208c0,0.496,0.179,0.912,0.54,1.25
				c0.36,0.337,0.776,0.506,1.249,0.506s0.878-0.18,1.215-0.541c0.339-0.359,0.508-0.765,0.508-1.215
				c0-3.736,0.021-9.117,0.067-16.141c0.045-6.078,0.045-10.603,0-13.575c0-0.405,0-0.787,0-1.148
				c1.485-0.044,2.634-0.067,3.444-0.067c0.495,0,0.912-0.169,1.249-0.507c0.338-0.337,0.507-0.753,0.507-1.25
				c0-0.495-0.169-0.911-0.507-1.249C177.11,313.57,176.693,313.401,176.198,313.401z"/>
			<path fill="#F49231" d="M205.846,340.347c-0.136-2.296-0.429-4.231-0.878-5.808c-0.54-2.116-1.351-3.917-2.432-5.403
				c-2.252-3.061-4.751-3.872-7.496-2.431c-1.847,0.945-3.603,3.062-5.269,6.348c-0.675,1.306-1.328,2.769-1.958,4.39
				c-0.135-3.736-0.181-8.171-0.135-13.304c0.044-1.935,0.09-4.885,0.135-8.847c0.09-5.673,0.136-9.904,0.136-12.696
				c0-0.495-0.169-0.912-0.508-1.25c-0.337-0.337-0.742-0.506-1.215-0.506s-0.89,0.169-1.249,0.506
				c-0.361,0.337-0.54,0.754-0.54,1.25c0,2.792-0.046,7.001-0.136,12.629c-0.045,3.962-0.091,6.934-0.135,8.915
				c-0.092,9.545,0.179,17.537,0.811,23.975c0.044,0.226,0.111,0.428,0.202,0.608c0.089,0.405,0.293,0.743,0.607,1.013
				c0.314,0.27,0.698,0.405,1.148,0.405c0.449,0,0.854-0.181,1.216-0.541c0.359-0.361,0.54-0.765,0.54-1.215
				c0-1.17,0.382-3.084,1.148-5.741c0.854-3.016,1.868-5.695,3.039-8.037c1.351-2.566,2.61-4.164,3.782-4.795
				c0.449-0.27,0.854-0.338,1.215-0.203c0.585,0.181,1.192,0.721,1.824,1.621c1.44,1.982,2.34,5.111,2.701,9.388
				c0.044,0.811,0.111,2.093,0.202,3.849c0.045,1.712,0.112,2.995,0.202,3.85c0.045,0.496,0.26,0.889,0.642,1.182
				c0.383,0.292,0.812,0.427,1.284,0.405c0.473-0.023,0.866-0.226,1.182-0.608c0.314-0.382,0.449-0.821,0.405-1.317
				c-0.091-0.765-0.158-1.981-0.203-3.647C206.024,342.532,205.935,341.203,205.846,340.347z"/>
			<path fill="#F49231" d="M226.883,330.893c-0.383-0.314-0.811-0.45-1.283-0.405c-0.473,0.045-0.868,0.248-1.183,0.608
				c-0.314,0.361-0.45,0.788-0.404,1.283c0.404,5.043-0.631,8.982-3.106,11.819c-1.036,1.125-1.938,1.644-2.702,1.553
				c-0.766-0.044-1.553-0.63-2.363-1.756c-2.026-2.656-3.579-7.023-4.66-13.102c-0.36-1.891-0.607-3.804-0.743-5.74h0.067
				c0.136,0,0.642-0.011,1.521-0.034c0.878-0.022,1.834-0.056,2.87-0.101c1.035-0.044,1.756-0.089,2.161-0.135
				c1.891-0.044,3.398-0.135,4.524-0.27c1.621-0.135,2.678-0.338,3.174-0.608c0.406-0.225,0.697-0.562,0.879-1.013
				c0.044-0.179,0.089-0.382,0.135-0.607c0.044-0.271,0.067-0.608,0.067-1.013c0-0.72-0.046-1.621-0.136-2.701
				c-0.314-2.611-0.854-5.133-1.62-7.564c-0.991-3.151-2.252-5.492-3.782-7.023c-2.16-2.296-4.659-2.881-7.496-1.756
				c-1.712,0.721-3.085,2.207-4.119,4.458c-0.811,1.891-1.396,4.254-1.756,7.091c-0.631,5.402-0.361,11.278,0.81,17.626
				c1.171,6.618,2.927,11.481,5.268,14.587c1.53,2.026,3.22,3.096,5.065,3.208c1.846,0.112,3.669-0.821,5.471-2.803
				c3.15-3.556,4.457-8.375,3.916-14.453C227.456,331.591,227.265,331.208,226.883,330.893z M210.167,321.64
				c-0.09-2.656,0-5.109,0.271-7.361c0.585-5.042,1.824-7.923,3.714-8.644c1.352-0.541,2.567-0.247,3.647,0.878
				c1.126,1.171,2.116,3.063,2.972,5.673c0.675,2.161,1.148,4.435,1.418,6.821c0.09,0.766,0.136,1.442,0.136,2.026
				c-0.315,0.045-0.675,0.09-1.081,0.135c-1.08,0.091-2.522,0.159-4.321,0.203c-0.451,0.045-1.621,0.102-3.513,0.169
				c-1.891,0.067-2.949,0.101-3.174,0.101H210.167z"/>
			<path fill="#F49231" d="M270.542,328.866c-0.631-0.9-1.554-2.161-2.77-3.781l-0.404-0.541c-0.136-0.225-0.271-0.405-0.406-0.541
				c-2.477-3.286-4.119-5.919-4.93-7.901c-1.171-2.791-1.418-5.538-0.743-8.239c0.271-1.035,0.854-1.8,1.756-2.296
				c0.854-0.405,1.688-0.337,2.499,0.203c0.99,0.675,1.732,1.564,2.229,2.667c0.495,1.104,0.832,2.623,1.014,4.559
				c0.044,0.496,0.246,0.889,0.607,1.182c0.359,0.293,0.787,0.417,1.283,0.372c0.494-0.044,0.9-0.247,1.215-0.608
				c0.314-0.36,0.428-0.787,0.338-1.283c-0.18-2.161-0.54-3.917-1.08-5.268c-0.766-1.891-1.982-3.399-3.646-4.525
				c-1.937-1.351-3.94-1.485-6.011-0.405c-1.892,0.946-3.106,2.477-3.646,4.592c-0.856,3.422-0.541,6.889,0.945,10.4
				c0.585,1.396,1.395,2.882,2.431,4.458c0.676,1.126,1.644,2.522,2.904,4.187c0.135,0.135,0.27,0.315,0.405,0.54
				c0.089,0.091,0.225,0.271,0.404,0.541c2.387,3.152,4.029,5.583,4.931,7.293c1.396,2.702,2.048,5.268,1.959,7.699
				c0,0.856-0.136,1.577-0.406,2.161c-0.854,2.026-2.408,2.904-4.659,2.634c-1.081-0.135-2.06-0.529-2.938-1.182
				c-0.877-0.652-1.496-1.452-1.856-2.397c-0.496-1.351-0.833-2.881-1.014-4.592c-0.09-0.99-0.135-2.476-0.135-4.458
				c0-0.495-0.169-0.912-0.507-1.25c-0.337-0.338-0.754-0.507-1.249-0.507c-0.496,0-0.911,0.169-1.249,0.507
				s-0.507,0.754-0.507,1.25c0,2.071,0.045,3.67,0.136,4.795c0.225,1.982,0.63,3.793,1.215,5.437
				c0.585,1.644,1.575,2.995,2.973,4.052c1.395,1.057,2.971,1.677,4.727,1.857c1.801,0.18,3.455-0.146,4.964-0.979
				c1.508-0.833,2.622-2.104,3.343-3.816c0.405-0.99,0.63-2.138,0.676-3.444c0.089-3.016-0.699-6.146-2.364-9.387
				C272.342,331.635,271.531,330.308,270.542,328.866z"/>
			<path fill="#F49231" d="M299.918,308.876v-0.338c-0.044-0.271-0.079-0.54-0.101-0.81c-0.023-0.271-0.045-0.551-0.068-0.844
				c-0.023-0.292-0.033-0.483-0.033-0.574c-0.045-0.81-0.09-1.418-0.135-1.823c0-0.225,0-0.405,0-0.541v-0.135
				c0.045-0.495-0.091-0.934-0.405-1.316c-0.315-0.382-0.709-0.596-1.183-0.642c-0.473-0.044-0.9,0.079-1.283,0.372
				c-0.383,0.293-0.598,0.687-0.641,1.182c-0.046,0.36,0,1.418,0.135,3.174c0,0.091,0.011,0.282,0.033,0.574
				c0.022,0.294,0.057,0.575,0.102,0.845c0.045,0.27,0.067,0.54,0.067,0.81v0.338c0.136,1.216,0.226,2.296,0.271,3.241
				c0.404,5.133,0.608,9.613,0.608,13.44c0.044,6.394-0.361,11.369-1.216,14.925c-0.496,1.982-1.127,3.468-1.892,4.458
				c-0.631,0.811-1.351,1.216-2.161,1.216c-1.036,0.045-1.958-0.428-2.769-1.418c-0.856-1.035-1.599-2.634-2.229-4.795
				c-1.081-3.872-1.667-9.296-1.756-16.276c-0.046-4.547,0.112-9.86,0.473-15.938c0.09-0.855,0.157-1.778,0.202-2.769
				c0-0.18,0.022-0.45,0.068-0.811c0.044-0.36,0.09-0.697,0.135-1.013v-0.473c0-0.495-0.158-0.922-0.473-1.283
				c-0.316-0.36-0.709-0.563-1.182-0.608c-0.473-0.044-0.89,0.091-1.25,0.405c-0.361,0.316-0.563,0.721-0.607,1.216v0.473
				c-0.045,0.315-0.08,0.653-0.102,1.012c-0.022,0.361-0.057,0.631-0.102,0.811c-0.045,1.036-0.09,1.981-0.135,2.836
				c-0.404,6.124-0.586,11.504-0.54,16.141c0.09,7.293,0.72,13.034,1.891,17.222c0.765,2.611,1.733,4.659,2.904,6.146
				c1.53,1.801,3.376,2.678,5.538,2.633c1.935,0,3.578-0.878,4.93-2.633c1.035-1.351,1.846-3.242,2.431-5.673
				c0.945-3.827,1.396-9.094,1.351-15.803c0-3.917-0.201-8.486-0.607-13.709C300.099,311.172,300.008,310.092,299.918,308.876z"/>
			<path fill="#F49231" d="M326.527,329.745c-0.315-8.329-1.148-15.375-2.499-21.138c-0.721-3.106-1.914-5.2-3.579-6.281
				c-1.667-1.08-3.535-1.08-5.605,0c-1.441,0.721-2.836,1.937-4.188,3.647c0-0.989,0.022-2.002,0.068-3.039
				c0-0.449-0.169-0.854-0.507-1.215c-0.338-0.36-0.743-0.551-1.216-0.574c-0.473-0.022-0.89,0.135-1.249,0.473
				c-0.361,0.337-0.54,0.754-0.54,1.249c-0.136,5.043-0.113,12.81,0.067,23.299c0,0.091,0,0.181,0,0.271
				c0.179,9.86,0.202,17.153,0.067,21.881c0,0.496,0.169,0.912,0.507,1.25s0.742,0.517,1.215,0.541
				c0.473,0.022,0.889-0.135,1.249-0.473c0.36-0.338,0.541-0.753,0.541-1.25c0.136-4.728,0.112-12.066-0.067-22.017
				c0-0.089,0-0.179,0-0.27c-0.091-5.582-0.159-9.86-0.203-12.832c0.09-0.09,0.158-0.203,0.203-0.338
				c0.54-1.621,1.351-3.14,2.432-4.558c1.079-1.418,2.16-2.398,3.241-2.938c0.854-0.449,1.554-0.495,2.093-0.135
				c0.855,0.586,1.531,1.958,2.027,4.12c1.305,5.538,2.115,12.382,2.43,20.531c0.181,3.647,0.271,9.117,0.271,16.411v1.081
				c0,0.496,0.169,0.912,0.507,1.25s0.743,0.506,1.216,0.506s0.889-0.168,1.25-0.506c0.359-0.338,0.54-0.753,0.54-1.25v-1.081
				C326.798,339.02,326.707,333.482,326.527,329.745z"/>
		</g>
	</g>
	<path fill="#F49232" d="M327.51,133.832c-0.247,0.039-0.493,0.173-0.703,0.447c-5.614,7.262-11.229,14.525-16.843,21.787
		c-2.868-2.653-5.829-5.192-8.893-7.619c3.817-5.952,7.635-11.903,11.453-17.854c1.323-2.064,6.386-7.145,2.756-9.296
		c-3.49-2.068-5.99,4.544-7.285,6.563c-3.718,5.796-7.436,11.593-11.153,17.39c-6.117-4.398-12.529-8.293-19.247-11.702
		c1.37-2.172,2.384-4.702,3.551-6.933c1.879-3.595,3.759-7.19,5.639-10.785c1.507-2.882,4.229-6.403,4.966-9.56
		c0.313-1.338,0.083-2.517-1.182-3.248c-1.126-0.65-2.052-0.405-3.005,0.333c-2.233,1.729-3.64,6.537-4.945,9.035
		c-1.879,3.595-3.759,7.19-5.639,10.785c-1.31,2.505-3.287,5.266-4.283,8.04c-6.788-3.04-13.758-5.571-20.922-7.577
		c1.267-2.634,1.914-5.888,2.82-8.536c1.422-4.15,2.844-8.301,4.265-12.452c0.864-2.521,5.503-10.179,1.058-11.487
		c-4.237-1.246-5.318,7.626-6.159,10.081c-1.327,3.874-2.653,7.748-3.98,11.622c-0.999,2.918-2.705,6.263-3.291,9.431
		c-8.539-1.943-17.179-3.129-25.926-3.56c0.333-8.133,0.667-16.267,1-24.4c0.094-2.28,0.187-4.56,0.28-6.84
		c0.052-1.262,0.568-3.264-0.074-4.481c-0.485-0.92-1.287-1.53-2.379-1.538c-1.116-0.008-1.908,0.64-2.425,1.539
		c-0.694,1.205-0.359,3.178-0.413,4.474c-0.093,2.276-0.187,4.552-0.279,6.828c-0.332,8.096-0.664,16.191-0.995,24.287
		c-8.271-0.002-16.479,0.69-24.634,2.055c-1.105-8.354-2.091-16.723-2.921-25.108c-0.311-3.126,0.051-7.373-0.973-10.366
		c-0.425-1.243-1.253-2.261-2.707-2.24c-4.824,0.07-1.834,10.351-1.597,12.743c0.863,8.671,1.89,17.323,3.038,25.961
		c-7.114,1.551-14.056,3.618-20.858,6.214c-2.973-7.863-5.812-15.775-8.474-23.749c-0.981-2.94-1.554-7.185-3.224-9.825
		c-0.705-1.116-1.749-1.872-3.153-1.474c-4.562,1.29,0.531,10.479,1.302,12.787c2.721,8.146,5.625,16.229,8.669,24.259
		c-6.909,3.012-13.528,6.541-19.887,10.584c-4.061-6.406-7.906-12.941-11.466-19.641c-1.172-2.207-3.905-11.778-7.873-9.505
		c-3.926,2.249,2.123,9.951,3.326,12.215c3.604,6.78,7.5,13.394,11.616,19.874c-6.308,4.451-12.236,9.356-17.788,14.72
		c-3.991-5.265-7.811-10.654-11.396-16.206c-1.696-2.626-3.131-6.125-5.217-8.426c-0.784-0.864-1.51-1.448-2.748-1.217
		c-4.25,0.794-0.855,5.514,0.232,7.286c3.599,5.856,7.432,11.567,11.48,17.121c1.534,2.105,4.646,8.678,7.977,7.962
		c1.669-0.358,3.041-2.462,4.186-3.558c2.252-2.157,4.58-4.236,6.978-6.23c8.859-7.37,18.707-13.551,29.153-18.41
		c43.479-20.222,95.555-15.572,134.555,12.393c3.391,2.432,6.662,5.027,9.811,7.766c1.98,1.724,4.377,5.109,6.808,6.056
		c1.223,0.477,2.124,0.364,3.086-0.593c0.431-0.428,0.383-0.823,0.651-1.264c1.139-1.864,2.462-3.546,3.803-5.281
		c2.426-3.139,4.853-6.277,7.278-9.416c1.987-2.571,5.064-5.41,6.446-8.338C331.918,135.284,329.929,132.692,327.51,133.832z"/>
	<g>
		<path fill="#EE5B33" d="M375.448,303.476c-13.33,0.44-26.66,0.88-39.989,1.321c-3.396,0.112-3.411,5.403,0,5.291
			c13.329-0.44,26.659-0.881,39.989-1.321C378.844,308.654,378.858,303.363,375.448,303.476z"/>
		<path fill="#58595B" d="M375.448,314.021c-13.33,0.44-26.66,0.881-39.989,1.321c-3.396,0.112-3.411,5.404,0,5.291
			c13.329-0.44,26.659-0.881,39.989-1.321C378.844,319.199,378.858,313.908,375.448,314.021z"/>
		<path fill="#58595B" d="M375.448,323.566c-13.33,0.44-26.66,0.881-39.989,1.321c-3.396,0.112-3.411,5.403,0,5.291
			c13.329-0.44,26.659-0.88,39.989-1.321C378.844,328.745,378.858,323.454,375.448,323.566z"/>
		<path fill="#F49231" d="M375.448,334.112c-13.33,0.44-26.66,0.88-39.989,1.321c-3.396,0.112-3.411,5.403,0,5.291
			c13.329-0.44,26.659-0.881,39.989-1.321C378.844,339.29,378.858,333.999,375.448,334.112z"/>
	</g>
	<g>
		<path fill="#EE5B33" d="M56.553,304.941c13.33,0.44,26.659,0.88,39.989,1.321c3.396,0.112,3.411,5.403,0,5.291
			c-13.33-0.44-26.659-0.881-39.989-1.321C53.157,310.119,53.142,304.828,56.553,304.941z"/>
		<path fill="#58595B" d="M56.553,315.486c13.33,0.44,26.659,0.881,39.989,1.321c3.396,0.112,3.411,5.404,0,5.291
			c-13.33-0.44-26.659-0.881-39.989-1.321C53.157,320.665,53.142,315.373,56.553,315.486z"/>
		<path fill="#58595B" d="M56.553,325.032c13.33,0.44,26.659,0.88,39.989,1.321c3.396,0.112,3.411,5.403,0,5.291
			c-13.33-0.44-26.659-0.88-39.989-1.321C53.157,330.21,53.142,324.919,56.553,325.032z"/>
		<path fill="#F49231" d="M56.553,335.577c13.33,0.44,26.659,0.881,39.989,1.321c3.396,0.112,3.411,5.404,0,5.291
			c-13.33-0.44-26.659-0.881-39.989-1.321C53.157,340.755,53.142,335.464,56.553,335.577z"/>
	</g>
	<g>
		<circle fill="#58595B" cx="89.415" cy="180.389" r="6.26"/>
		<circle fill="#EE5B33" cx="83.998" cy="199.046" r="6.26"/>
		<circle fill="#F9AE4C" cx="89.415" cy="217.702" r="6.26"/>
	</g>
	<g>
		<circle fill="#58595B" cx="341.452" cy="182.307" r="6.26"/>
		<circle fill="#EE5B33" cx="346.869" cy="200.964" r="6.26"/>
		<circle fill="#F9AE4C" cx="341.452" cy="219.62" r="6.26"/>
	</g>
</g>
</svg>
