<?xml version="1.0" encoding="utf-8"?>
<!-- Generator: Adobe Illustrator 16.0.0, SVG Export Plug-In . SVG Version: 6.00 Build 0)  -->
<!DOCTYPE svg PUBLIC "-//W3C//DTD SVG 1.1//EN" "http://www.w3.org/Graphics/SVG/1.1/DTD/svg11.dtd">
<svg version="1.1" id="Calque_1" xmlns="http://www.w3.org/2000/svg" xmlns:xlink="http://www.w3.org/1999/xlink" x="0px" y="0px"
	 width="432px" height="432px" viewBox="0 0 432 432" enable-background="new 0 0 432 432" xml:space="preserve">
<g>
	<g>
		<path fill="#2377B8" d="M137.507,75.065v-0.401c0-0.201-0.018-0.435-0.05-0.703c-0.035-0.267-0.05-0.535-0.05-0.803
			c0-0.267,0-0.468,0-0.603c-0.068-1.671-0.101-2.81-0.101-3.412c0-0.736-0.251-1.355-0.753-1.857
			c-0.502-0.501-1.121-0.752-1.857-0.752c-0.737,0-1.354,0.251-1.856,0.752c-0.502,0.502-0.753,1.122-0.753,1.857
			c0,0.669,0.033,1.874,0.101,3.613c0,0.067,0,0.251,0,0.552c0,0.301,0.016,0.586,0.05,0.853c0.033,0.268,0.05,0.502,0.05,0.703
			v0.401c0,1.071,0.033,2.042,0.1,2.911c0.201,8.967,0.234,16.696,0.101,23.186c-0.201,9.1-0.737,16.294-1.606,21.579
			c-0.469,3.079-1.071,5.455-1.807,7.126c-0.335,0.737-0.669,1.305-1.004,1.707c-0.134,0.134-0.268,0.268-0.401,0.401h-0.1
			c-0.469,0.201-0.87,0.201-1.205,0c-0.469-0.267-0.971-0.803-1.506-1.606c-1.673-2.341-2.81-5.453-3.412-9.334
			c-0.469-2.743-0.703-6.323-0.703-10.739c0-0.736-0.251-1.355-0.753-1.857c-0.501-0.501-1.121-0.752-1.856-0.752
			c-0.737,0-1.355,0.251-1.857,0.752c-0.502,0.502-0.753,1.121-0.753,1.857c0,4.685,0.267,8.566,0.803,11.643
			c0.736,4.617,2.141,8.431,4.216,11.442c1.069,1.473,2.173,2.51,3.312,3.112c1.606,0.936,3.378,1.104,5.32,0.501
			c1.94-0.602,3.513-2.309,4.717-5.119c0.869-2.007,1.571-4.75,2.107-8.23c0.937-5.554,1.506-13.014,1.707-22.382
			c0.133-6.557,0.101-14.386-0.1-23.486C137.54,77.173,137.507,76.204,137.507,75.065z"/>
		<path fill="#2377B8" d="M174.341,77.374v-0.502c-0.067-0.401-0.118-0.803-0.151-1.205c-0.034-0.401-0.067-0.818-0.1-1.254
			c-0.035-0.435-0.05-0.718-0.05-0.853c-0.067-1.205-0.135-2.108-0.201-2.71c0-0.334,0-0.602,0-0.803v-0.201
			c0.065-0.735-0.135-1.388-0.602-1.957c-0.469-0.568-1.054-0.886-1.757-0.954c-0.703-0.065-1.339,0.118-1.907,0.552
			c-0.57,0.436-0.888,1.021-0.954,1.756c-0.067,0.536,0,2.107,0.201,4.717c0,0.135,0.016,0.418,0.05,0.853
			c0.033,0.436,0.083,0.853,0.151,1.254c0.065,0.402,0.1,0.803,0.1,1.205v0.501c0.201,1.807,0.333,3.413,0.401,4.818
			c0.602,7.628,0.903,14.287,0.903,19.973c0.065,9.502-0.537,16.896-1.807,22.182c-0.737,2.945-1.673,5.153-2.81,6.624
			c-0.938,1.205-2.007,1.807-3.212,1.807c-1.54,0.067-2.911-0.635-4.115-2.108c-1.271-1.538-2.376-3.914-3.313-7.125
			c-1.605-5.754-2.476-13.816-2.609-24.189c-0.068-6.757,0.166-14.653,0.702-23.687c0.133-1.27,0.233-2.642,0.301-4.115
			c0-0.267,0.033-0.668,0.101-1.205c0.065-0.535,0.133-1.037,0.201-1.505v-0.703c0-0.735-0.235-1.371-0.703-1.907
			c-0.469-0.535-1.054-0.836-1.757-0.903c-0.703-0.066-1.322,0.134-1.856,0.602c-0.537,0.469-0.837,1.071-0.903,1.806v0.703
			c-0.068,0.469-0.118,0.971-0.15,1.505c-0.035,0.537-0.085,0.938-0.151,1.204c-0.067,1.54-0.135,2.946-0.201,4.216
			c-0.603,9.101-0.871,17.097-0.803,23.988c0.134,10.84,1.07,19.371,2.811,25.594c1.137,3.881,2.575,6.926,4.316,9.133
			c2.274,2.677,5.018,3.98,8.23,3.915c2.876,0,5.319-1.305,7.327-3.915c1.538-2.007,2.743-4.817,3.613-8.431
			c1.405-5.687,2.073-13.516,2.007-23.486c0-5.821-0.301-12.612-0.903-20.375C174.608,80.786,174.475,79.18,174.341,77.374z"/>
		<path fill="#2377B8" d="M209.47,107.083c-0.938-1.338-2.308-3.212-4.115-5.621l-0.603-0.803c-0.201-0.334-0.401-0.602-0.602-0.803
			c-3.681-4.884-6.123-8.798-7.327-11.744c-1.741-4.148-2.108-8.23-1.104-12.245c0.401-1.539,1.27-2.675,2.609-3.413
			c1.27-0.602,2.509-0.501,3.713,0.302c1.471,1.003,2.575,2.325,3.313,3.964c0.735,1.641,1.237,3.898,1.505,6.774
			c0.066,0.737,0.367,1.322,0.903,1.757c0.535,0.436,1.17,0.619,1.907,0.552c0.736-0.066,1.338-0.368,1.807-0.903
			c0.467-0.535,0.635-1.17,0.501-1.907c-0.268-3.212-0.803-5.821-1.606-7.829c-1.139-2.81-2.945-5.051-5.42-6.725
			c-2.877-2.007-5.855-2.208-8.933-0.602c-2.81,1.405-4.617,3.681-5.42,6.825c-1.271,5.086-0.803,10.238,1.405,15.457
			c0.869,2.075,2.073,4.283,3.613,6.625c1.004,1.673,2.442,3.748,4.316,6.223c0.201,0.201,0.401,0.469,0.602,0.803
			c0.133,0.135,0.334,0.401,0.602,0.804c3.546,4.684,5.988,8.297,7.327,10.839c2.073,4.015,3.044,7.829,2.91,11.442
			c0,1.272-0.201,2.343-0.602,3.212c-1.271,3.011-3.58,4.316-6.925,3.915c-1.606-0.201-3.062-0.786-4.366-1.756
			c-1.305-0.969-2.226-2.158-2.76-3.563c-0.737-2.007-1.239-4.281-1.506-6.825c-0.134-1.471-0.201-3.679-0.201-6.625
			c0-0.736-0.251-1.355-0.752-1.857c-0.502-0.501-1.121-0.752-1.857-0.752c-0.737,0-1.355,0.251-1.857,0.752
			c-0.502,0.502-0.752,1.121-0.752,1.857c0,3.078,0.065,5.454,0.201,7.126c0.334,2.945,0.936,5.638,1.807,8.08
			c0.869,2.443,2.341,4.451,4.416,6.022c2.074,1.571,4.417,2.492,7.025,2.76c2.676,0.267,5.135-0.218,7.377-1.455
			c2.241-1.237,3.897-3.127,4.969-5.671c0.602-1.471,0.936-3.177,1.003-5.119c0.133-4.482-1.038-9.134-3.513-13.951
			C212.146,111.197,210.941,109.225,209.47,107.083z"/>
		<path fill="#2377B8" d="M242.189,84.098c-1.204,0-2.91,0.035-5.119,0.101c-0.067-5.887-0.235-11.442-0.502-16.662
			c0-0.667-0.268-1.254-0.803-1.756c-0.537-0.502-1.172-0.736-1.907-0.703c-0.737,0.034-1.339,0.318-1.807,0.853
			c-0.469,0.536-0.702,1.171-0.702,1.907c0.266,5.153,0.434,10.674,0.501,16.561c-1.941,0-3.68-0.066-5.219-0.201
			c-0.737-0.066-1.373,0.118-1.907,0.552c-0.537,0.436-0.853,1.021-0.954,1.756c-0.1,0.737,0.083,1.373,0.552,1.907
			c0.467,0.537,1.069,0.838,1.806,0.904c1.672,0.201,3.579,0.301,5.721,0.301c0,0.469,0,0.97,0,1.505
			c0.066,4.416,0.066,11.108,0,20.073c-0.067,10.506-0.1,18.536-0.1,24.089c0,0.737,0.266,1.355,0.803,1.857
			c0.535,0.501,1.154,0.752,1.856,0.752c0.703,0,1.305-0.268,1.807-0.803s0.752-1.137,0.752-1.807c0-5.553,0.033-13.55,0.101-23.988
			c0.066-9.033,0.066-15.758,0-20.174c0-0.603,0-1.17,0-1.706c2.208-0.066,3.915-0.101,5.119-0.101c0.735,0,1.355-0.251,1.857-0.753
			c0.502-0.502,0.753-1.12,0.753-1.857c0-0.735-0.251-1.354-0.753-1.856C243.544,84.349,242.924,84.098,242.189,84.098z"/>
		<path fill="#2377B8" d="M316.46,134.784c-0.335-3.077-0.569-9.635-0.703-19.672c-0.067-4.817-0.101-8.363-0.101-10.639
			c-0.201-8.296-0.569-14.92-1.104-19.873c-0.737-6.825-1.907-11.709-3.513-14.654c-1.473-2.61-3.63-4.231-6.474-4.868
			c-2.844-0.635-5.637-0.184-8.38,1.354c-2.075,1.139-3.714,2.945-4.918,5.42c-0.268,0.67-0.286,1.339-0.05,2.008
			c0.234,0.669,0.668,1.171,1.305,1.505c0.635,0.335,1.305,0.369,2.007,0.1c0.703-0.266,1.188-0.703,1.456-1.305
			c0.735-1.471,1.639-2.509,2.71-3.111c1.605-0.869,3.111-1.17,4.517-0.903c1.405,0.201,2.475,0.971,3.212,2.308
			c1.27,2.343,2.241,6.559,2.91,12.647c0.535,4.817,0.904,11.309,1.104,19.472c0,2.275,0.033,5.821,0.1,10.639
			c0.066,3.212,0.101,5.821,0.101,7.829c-1.606-2.475-3.279-4.582-5.019-6.323c-3.146-3.077-6.257-4.818-9.334-5.22
			c-3.948-0.535-7.361,1.104-10.237,4.918c-1.071,1.472-1.841,3.229-2.309,5.269c-0.469,2.042-0.502,4-0.1,5.872
			c0.735,3.547,2.475,6.258,5.219,8.13c2.208,1.54,5.051,2.475,8.532,2.81c2.675,0.267,5.721,0.134,9.133-0.401
			c1.672-0.201,3.445-0.501,5.319-0.903c0.602,0.467,1.305,0.635,2.108,0.502h0.101h0.1c0.736-0.067,1.32-0.386,1.756-0.953
			C316.343,136.173,316.526,135.521,316.46,134.784z M297.893,133.279c-5.287-0.468-8.331-2.71-9.134-6.725
			c-0.537-2.609-0.035-4.951,1.505-7.026c1.606-2.141,3.378-3.094,5.319-2.86c1.94,0.235,4.048,1.49,6.324,3.764
			c2.208,2.142,4.181,4.785,5.921,7.929c0.735,1.339,1.371,2.644,1.907,3.915C305.051,133.279,301.104,133.614,297.893,133.279z"/>
	</g>
	<g>
		<path fill="#8DC449" d="M124.055,285.425c-3.279,0.068-6.725,1.741-10.338,5.019c-2.476,2.275-4.751,5.053-6.825,8.331
			c0-1.137,0-2.509,0-4.115c0.134-6.289,0.201-11.041,0.201-14.252c0.066-14.72-0.469-26.964-1.606-36.735
			c-0.067-0.735-0.386-1.32-0.953-1.756c-0.57-0.434-1.222-0.618-1.958-0.552c-0.737,0.067-1.322,0.386-1.756,0.954
			c-0.436,0.569-0.62,1.222-0.552,1.958c1.137,9.569,1.671,21.613,1.605,36.132c0,3.146-0.067,7.863-0.201,14.152
			c-0.135,7.829-0.201,13.65-0.201,17.464c0,0.67,0.234,1.254,0.703,1.756c0.467,0.502,1.037,0.786,1.706,0.853
			c0.066,0.066,0.133,0.101,0.201,0.101c3.947,0.869,8.095,1.154,12.445,0.853c4.349-0.301,8.095-1.222,11.241-2.76
			c3.88-1.807,6.457-4.381,7.729-7.729c1.338-3.679,0.836-7.861-1.506-12.546C131.583,287.734,128.27,285.359,124.055,285.425z
			 M130.578,303.291c-0.736,2.007-2.443,3.613-5.119,4.817c-2.275,1.139-5.053,1.874-8.331,2.208
			c-3.279,0.335-6.491,0.235-9.635-0.301c0.467-2.274,1.639-4.934,3.512-7.979c1.873-3.044,3.948-5.604,6.223-7.678
			c2.61-2.409,4.934-3.629,6.976-3.664c2.041-0.033,3.764,1.354,5.169,4.165C131.046,298.207,131.447,301.017,130.578,303.291z"/>
		<path fill="#8DC449" d="M173.787,286.027c-0.569-0.467-1.205-0.668-1.907-0.603c-0.703,0.068-1.29,0.369-1.757,0.904
			c-0.469,0.536-0.669,1.171-0.602,1.907c0.602,7.495-0.938,13.349-4.617,17.565c-1.54,1.673-2.877,2.443-4.015,2.308
			c-1.139-0.065-2.309-0.936-3.513-2.609c-3.011-3.947-5.319-10.438-6.926-19.472c-0.536-2.81-0.903-5.654-1.104-8.531h0.101
			c0.201,0,0.953-0.016,2.258-0.05c1.305-0.033,2.726-0.083,4.266-0.15c1.539-0.066,2.609-0.133,3.212-0.201
			c2.81-0.066,5.051-0.201,6.725-0.402c2.409-0.201,3.98-0.501,4.717-0.903c0.603-0.334,1.037-0.836,1.305-1.506
			c0.066-0.267,0.134-0.567,0.201-0.903c0.066-0.401,0.101-0.903,0.101-1.505c0-1.07-0.067-2.409-0.201-4.015
			c-0.469-3.88-1.272-7.628-2.409-11.241c-1.472-4.683-3.346-8.163-5.62-10.438c-3.212-3.413-6.926-4.281-11.141-2.609
			c-2.543,1.071-4.584,3.279-6.123,6.624c-1.205,2.811-2.075,6.323-2.609,10.539c-0.937,8.03-0.537,16.762,1.204,26.196
			c1.739,9.836,4.349,17.063,7.829,21.68c2.274,3.011,4.784,4.601,7.528,4.768c2.743,0.166,5.453-1.22,8.13-4.166
			c4.683-5.285,6.625-12.446,5.822-21.479C174.641,287.065,174.355,286.497,173.787,286.027z M148.946,272.277
			c-0.135-3.947,0-7.593,0.401-10.94c0.869-7.493,2.71-11.776,5.521-12.847c2.007-0.803,3.814-0.367,5.42,1.305
			c1.672,1.741,3.144,4.551,4.416,8.431c1.004,3.212,1.706,6.591,2.108,10.137c0.133,1.139,0.201,2.143,0.201,3.011
			c-0.469,0.067-1.004,0.135-1.606,0.201c-1.606,0.135-3.748,0.235-6.423,0.301c-0.67,0.067-2.409,0.15-5.219,0.251
			c-2.81,0.1-4.383,0.15-4.717,0.15H148.946z"/>
		<path fill="#8DC449" d="M215.689,291.046c-0.067-4.817-0.101-8.364-0.101-10.639c-0.201-8.296-0.569-14.92-1.104-19.873
			c-0.737-6.825-1.907-11.708-3.513-14.654c-1.473-2.609-3.63-4.231-6.474-4.868c-2.844-0.635-5.638-0.184-8.38,1.354
			c-2.075,1.139-3.714,2.946-4.918,5.42c-0.268,0.669-0.286,1.339-0.05,2.007c0.234,0.67,0.668,1.171,1.305,1.506
			c0.635,0.335,1.305,0.368,2.007,0.1c0.703-0.267,1.188-0.703,1.456-1.305c0.735-1.471,1.639-2.509,2.71-3.111
			c1.605-0.869,3.111-1.17,4.517-0.904c1.405,0.201,2.475,0.971,3.212,2.309c1.27,2.343,2.241,6.559,2.91,12.646
			c0.535,4.817,0.904,11.309,1.104,19.472c0,2.275,0.033,5.821,0.1,10.639c0.066,3.212,0.101,5.821,0.101,7.829
			c-1.606-2.475-3.279-4.583-5.019-6.323c-3.146-3.077-6.257-4.818-9.334-5.219c-3.948-0.535-7.361,1.104-10.238,4.918
			c-1.071,1.473-1.841,3.229-2.308,5.27c-0.469,2.042-0.502,3.999-0.1,5.872c0.735,3.547,2.475,6.257,5.219,8.13
			c2.208,1.54,5.051,2.475,8.531,2.81c2.675,0.267,5.721,0.134,9.134-0.401c1.671-0.201,3.445-0.501,5.319-0.904
			c0.602,0.468,1.305,0.635,2.108,0.502h0.101h0.1c0.736-0.068,1.32-0.386,1.756-0.954c0.435-0.568,0.618-1.22,0.552-1.957
			C216.057,307.641,215.823,301.083,215.689,291.046z M197.824,309.212c-5.287-0.467-8.331-2.709-9.134-6.725
			c-0.537-2.609-0.035-4.951,1.505-7.026c1.606-2.141,3.378-3.094,5.319-2.86c1.94,0.235,4.048,1.49,6.323,3.764
			c2.208,2.142,4.181,4.785,5.922,7.929c0.735,1.339,1.371,2.644,1.907,3.915C204.983,309.212,201.036,309.548,197.824,309.212z"/>
		<path fill="#8DC449" d="M249.513,285.325c-0.737-0.066-1.373,0.135-1.907,0.602c-0.536,0.469-0.838,1.038-0.903,1.707
			c0,0.135,0,0.268,0,0.401c0,0.067-0.035,0.386-0.101,0.954c-0.067,0.569-0.1,0.92-0.1,1.054c-0.067,0.803-0.135,1.505-0.201,2.107
			c-0.135,1.673-0.336,3.146-0.603,4.416c-1.071,6.157-3.211,10.104-6.423,11.844c-0.87,0.469-1.741,0.469-2.61,0
			c-1.003-0.467-1.907-1.305-2.709-2.509c-3.882-6.088-6.057-13.884-6.524-23.386c-0.401-8.364,0.535-16.292,2.811-23.787
			c1.003-3.278,2.174-5.988,3.513-8.13c1.137-1.872,2.208-3.011,3.212-3.412c0.668-0.267,1.371-0.066,2.108,0.602
			c1.337,1.339,2.575,3.781,3.713,7.327c0.602,1.806,1.104,3.881,1.505,6.222c0.267,1.473,0.603,3.681,1.004,6.625
			c0.133,1.405,0.267,2.443,0.401,3.112c0.066,0.737,0.385,1.322,0.954,1.756c0.568,0.436,1.22,0.602,1.957,0.501
			c0.735-0.1,1.32-0.434,1.757-1.003c0.434-0.568,0.585-1.22,0.451-1.957c-0.067-0.668-0.201-1.707-0.401-3.111
			c-0.335-3.011-0.637-5.285-0.903-6.825c-0.469-2.542-1.039-4.851-1.707-6.926c-1.473-4.416-3.179-7.56-5.119-9.435
			c-2.343-2.274-4.886-2.876-7.628-1.807c-4.015,1.606-7.293,6.591-9.835,14.955c-2.475,8.029-3.479,16.561-3.011,25.594
			c0.469,10.372,2.943,19.004,7.427,25.895c1.27,2.075,2.843,3.548,4.717,4.416c2.475,1.205,4.951,1.137,7.427-0.201
			c2.675-1.405,4.817-3.679,6.423-6.825c1.205-2.341,2.108-5.219,2.71-8.631c0.201-1.405,0.401-2.977,0.602-4.718
			c0.066-0.668,0.133-1.438,0.201-2.308c0-0.133,0.033-0.485,0.101-1.054c0.066-0.567,0.1-0.886,0.1-0.954c0-0.065,0-0.166,0-0.301
			c0.066-0.736-0.134-1.371-0.602-1.907C250.851,285.693,250.248,285.393,249.513,285.325z"/>
		<path fill="#8DC449" d="M293.374,300.079c-0.201-3.413-0.637-6.289-1.305-8.632c-0.803-3.145-2.007-5.822-3.613-8.029
			c-3.347-4.55-7.061-5.754-11.141-3.613c-2.745,1.405-5.354,4.551-7.829,9.435c-1.003,1.941-1.975,4.115-2.911,6.524
			c-0.201-5.553-0.268-12.145-0.201-19.772c0.065-2.876,0.133-7.259,0.201-13.148c0.133-8.431,0.201-14.72,0.201-18.869
			c0-0.736-0.251-1.355-0.753-1.857c-0.501-0.502-1.104-0.753-1.807-0.753c-0.703,0-1.322,0.251-1.856,0.753
			c-0.537,0.501-0.803,1.121-0.803,1.857c0,4.149-0.067,10.405-0.201,18.769c-0.068,5.888-0.135,10.305-0.201,13.249
			c-0.135,14.186,0.267,26.063,1.205,35.631c0.065,0.335,0.166,0.637,0.301,0.903c0.133,0.602,0.435,1.104,0.903,1.506
			c0.467,0.401,1.037,0.602,1.707,0.602c0.668,0,1.27-0.268,1.806-0.803c0.535-0.536,0.803-1.137,0.803-1.807
			c0-1.739,0.568-4.583,1.707-8.531c1.27-4.482,2.775-8.464,4.516-11.944c2.007-3.814,3.88-6.188,5.621-7.126
			c0.668-0.401,1.271-0.501,1.807-0.301c0.868,0.268,1.772,1.071,2.709,2.409c2.141,2.945,3.479,7.595,4.015,13.951
			c0.066,1.204,0.167,3.111,0.302,5.721c0.065,2.543,0.166,4.451,0.301,5.721c0.066,0.737,0.384,1.321,0.954,1.757
			c0.567,0.434,1.204,0.635,1.907,0.602c0.703-0.035,1.288-0.336,1.757-0.903c0.467-0.568,0.667-1.22,0.602-1.958
			c-0.135-1.137-0.235-2.944-0.301-5.419C293.641,303.326,293.507,301.351,293.374,300.079z"/>
		<path fill="#8DC449" d="M331.613,259.33v-0.201c-0.135-6.289-0.201-10.974-0.201-14.052c0-0.668-0.251-1.27-0.753-1.807
			c-0.501-0.535-1.121-0.803-1.856-0.803c-0.737,0-1.355,0.269-1.857,0.803c-0.502,0.537-0.753,1.139-0.753,1.807
			c0,3.146,0.066,7.863,0.201,14.152v0.201c0,1.741,0,3.246,0,4.517c0,0.135,0,0.235,0,0.301c-0.134,1.54-0.736,3.212-1.806,5.018
			c-1.071,1.807-2.309,3.279-3.714,4.417c-1.405,1.138-2.727,1.741-3.964,1.807c-1.239,0.067-2.393-0.535-3.463-1.807
			c-2.476-2.876-4.049-7.393-4.717-13.55c-0.536-4.75-0.501-10.002,0.101-15.758c0.065-0.735-0.118-1.371-0.552-1.907
			c-0.436-0.534-1.021-0.835-1.756-0.903c-0.737-0.065-1.373,0.118-1.907,0.552c-0.537,0.436-0.838,1.021-0.903,1.756
			c-0.67,6.09-0.737,11.677-0.201,16.762c0.803,7.227,2.775,12.681,5.922,16.36c2.208,2.544,4.75,3.781,7.628,3.714
			c2.409-0.066,4.783-1.07,7.126-3.011c0.803-0.668,1.571-1.406,2.308-2.208c0,0.938,0,1.907,0,2.911
			c-0.135,6.692-0.502,12.112-1.104,16.26c-0.737,4.818-1.874,8.398-3.413,10.739c-1.405,2.143-3.212,3.179-5.42,3.111
			c-1.003,0-1.841-0.435-2.509-1.305c-0.737-0.936-1.339-2.309-1.806-4.115c-0.269-0.937-0.502-2.041-0.703-3.313
			c-0.067-0.401-0.101-0.869-0.101-1.405c-0.067-0.134-0.1-0.367-0.1-0.703l-0.101-0.502c-0.067-0.735-0.385-1.32-0.953-1.756
			c-0.569-0.435-1.204-0.618-1.907-0.552c-0.703,0.067-1.289,0.386-1.757,0.954c-0.469,0.569-0.637,1.188-0.502,1.857
			c0,0.067,0,0.185,0,0.351c0,0.168,0.016,0.335,0.05,0.502c0.033,0.167,0.05,0.318,0.05,0.452c0.065,0.537,0.133,1.071,0.201,1.605
			c0.201,1.406,0.435,2.677,0.703,3.814c0.668,2.477,1.606,4.484,2.811,6.022c1.739,2.142,3.914,3.245,6.524,3.313
			c4.147,0.065,7.46-1.772,9.936-5.521c1.873-2.944,3.245-7.192,4.115-12.747c0.668-4.416,1.07-10.069,1.205-16.962
			C331.779,274.485,331.746,268.096,331.613,259.33z"/>
	</g>
	<g>
		<path fill="#2377B8" d="M340.45,333.781c-0.132-0.035-0.256-0.048-0.376-0.051c-0.005,0-0.009-0.001-0.015-0.002
			c-9.172-0.375-15.292-9.278-24.937-8.083c-9.712,1.203-16.189,9.69-24.99,13.089c-6.88,2.657-12.892,1.342-18.438-3.276
			c-3.304-2.752-6.34-5.65-10.408-7.269c-8.811-3.506-17.794-0.301-25.711,3.913c-4.32,2.3-8.551,4.928-13.244,6.419
			c-6.73,2.138-12.975,0.977-19.166-2.148c-8.593-4.338-16.137-10.596-25.925-12.129c-4.111-0.644-8.415-0.435-12.241,1.336
			c-4.764,2.205-7.335,6.725-11.471,9.694c-10.115,7.26-21.017-3.221-29.792-7.823c-7.485-3.925-15.691-4.984-23.229-0.569
			c-2.384,1.396-14.729,10.767-8.304,13.472c2.992,1.26,4.693-2.678,6.273-4.332c3.729-3.902,8.729-6.267,14.186-5.86
			c10.642,0.793,18.239,10.436,28.46,12.883c8.831,2.114,14.498-1.724,20.59-7.625c4.29-4.155,8.556-6.32,14.658-5.339
			c5.38,0.865,10.326,3.52,14.968,6.25c8.12,4.774,16.485,10.151,26.337,9.145c10.488-1.072,18.581-8.419,28.307-11.678
			c7.41-2.484,13.062-1.176,18.982,3.688c3.925,3.225,7.7,6.448,12.722,7.804c10.501,2.835,18.721-3.194,26.957-8.726
			c4.989-3.351,10.464-6.354,16.577-4.376c4.383,1.418,8.05,4.466,12.34,6.122c2.255,0.87,6.964,2.601,8.801,0.097
			C343.77,336.486,342.504,334.322,340.45,333.781z"/>
		<path fill="#2377B8" d="M339.16,345.358c-0.132-0.035-0.256-0.048-0.377-0.05c-0.005,0-0.009-0.002-0.014-0.002
			c-9.173-0.375-15.292-9.279-24.937-8.084c-9.712,1.203-16.189,9.69-24.991,13.089c-6.88,2.657-12.892,1.342-18.438-3.276
			c-3.304-2.751-6.34-5.65-10.408-7.269c-8.811-3.506-17.794-0.302-25.71,3.913c-4.32,2.3-8.551,4.928-13.244,6.418
			c-6.73,2.138-12.975,0.978-19.166-2.148c-8.593-4.338-16.138-10.595-25.926-12.128c-4.111-0.644-8.415-0.435-12.24,1.336
			c-4.764,2.205-7.335,6.725-11.472,9.693c-10.115,7.26-21.017-3.221-29.792-7.822c-7.486-3.925-15.691-4.984-23.23-0.57
			c-2.383,1.396-14.729,10.767-8.304,13.472c2.992,1.26,4.694-2.678,6.274-4.332c3.729-3.903,8.729-6.267,14.186-5.86
			c10.642,0.793,18.239,10.436,28.46,12.883c8.831,2.114,14.499-1.724,20.59-7.625c4.29-4.155,8.556-6.32,14.658-5.339
			c5.381,0.865,10.326,3.52,14.968,6.249c8.12,4.774,16.485,10.151,26.337,9.145c10.489-1.071,18.581-8.418,28.308-11.678
			c7.41-2.483,13.062-1.176,18.982,3.688c3.925,3.225,7.7,6.448,12.723,7.804c10.5,2.835,18.721-3.194,26.957-8.726
			c4.989-3.351,10.464-6.354,16.577-4.376c4.383,1.418,8.05,4.467,12.34,6.122c2.255,0.87,6.964,2.601,8.801,0.097
			C342.479,348.064,341.214,345.9,339.16,345.358z"/>
		<path fill="#2377B8" d="M339.16,354.968c-0.132-0.035-0.256-0.048-0.377-0.05c-0.005,0-0.009-0.002-0.014-0.002
			c-9.173-0.375-15.292-9.279-24.937-8.084c-9.712,1.203-16.189,9.69-24.991,13.089c-6.88,2.657-12.892,1.342-18.438-3.276
			c-3.304-2.751-6.34-5.65-10.408-7.269c-8.811-3.506-17.794-0.302-25.71,3.913c-4.32,2.3-8.551,4.928-13.244,6.418
			c-6.73,2.138-12.975,0.978-19.166-2.148c-8.593-4.338-16.138-10.595-25.926-12.128c-4.111-0.644-8.415-0.435-12.24,1.336
			c-4.764,2.205-7.335,6.725-11.472,9.693c-10.115,7.26-21.017-3.221-29.792-7.822c-7.486-3.925-15.691-4.984-23.23-0.569
			c-2.383,1.396-14.729,10.766-8.304,13.472c2.992,1.26,4.694-2.678,6.274-4.332c3.729-3.902,8.729-6.267,14.186-5.86
			c10.642,0.792,18.239,10.436,28.46,12.883c8.831,2.114,14.499-1.724,20.59-7.625c4.29-4.155,8.556-6.32,14.658-5.339
			c5.381,0.865,10.326,3.521,14.968,6.25c8.12,4.774,16.485,10.151,26.337,9.145c10.489-1.071,18.581-8.418,28.308-11.678
			c7.41-2.483,13.062-1.176,18.982,3.688c3.925,3.225,7.7,6.448,12.723,7.804c10.5,2.835,18.721-3.194,26.957-8.726
			c4.989-3.351,10.464-6.354,16.577-4.376c4.383,1.418,8.05,4.467,12.34,6.122c2.255,0.87,6.964,2.601,8.801,0.097
			C342.479,357.674,341.214,355.51,339.16,354.968z"/>
	</g>
	<g>
		<path fill="#58595B" d="M141.034,222.415c-0.003-0.833-0.322-1.591-0.924-2.195c-0.618-0.616-1.412-0.916-2.309-0.871
			c-0.88,0.048-1.614,0.383-2.183,1c-0.562,0.609-0.846,1.375-0.846,2.277c0,0.04,0.002,0.08,0.007,0.12
			c0.012,0.091,0.021,0.181,0.031,0.267l-3.329,0c-2.346-0.066-4.018-0.098-5.109-0.098c-1.961,0-3.763,0.022-5.372,0.067
			c-0.011-5.484-0.109-12.309-0.292-20.291c0-1.406-0.032-3.65-0.098-6.862c-0.376-16.589-0.511-29.488-0.402-38.363
			c0.172-0.009,0.338-0.014,0.497-0.014c0.918,0,1.677-0.294,2.257-0.874s0.874-1.323,0.874-2.208c0-0.869-0.285-1.618-0.848-2.23
			c-0.574-0.622-1.364-0.95-2.283-0.95c-1.126,0-2.469,0.067-3.909,0.196c-0.408,0-1.039,0.033-1.938,0.101
			c-0.745,0.063-1.31,0.094-1.677,0.094c-0.036,0-0.073,0.002-0.109,0.006c-0.825,0.092-1.523,0.442-2.079,1.042
			c-0.567,0.617-0.843,1.406-0.795,2.279c0.045,0.882,0.417,1.646,1.073,2.208c0.645,0.554,1.427,0.803,2.254,0.725
			c0.131-0.001,0.271-0.005,0.418-0.012c-0.104,8.905,0.031,21.727,0.405,38.138c0.066,3.197,0.098,5.428,0.098,6.842
			c0.184,8.172,0.282,15.092,0.292,20.589c-0.487,0.058-0.953,0.127-1.375,0.205c-0.843,0.094-1.562,0.492-2.079,1.15
			c-0.515,0.655-0.737,1.443-0.644,2.277c0.092,0.839,0.504,1.574,1.193,2.125c0.719,0.576,1.563,0.777,2.342,0.599
			c3.203-0.384,7.273-0.579,12.098-0.579c1.174,0,2.906,0.033,5.179,0.098h3.752c0.171,0.396,0.426,0.752,0.765,1.063
			c0.577,0.527,1.26,0.794,2.03,0.794c0.919,0,1.709-0.329,2.285-0.952c0.562-0.609,0.846-1.342,0.846-2.179
			C141.132,226.599,141.1,224.772,141.034,222.415z"/>
		<path fill="#58595B" d="M162.994,152.772c-0.685-0.548-1.494-0.787-2.347-0.696c-2.525,0.317-5.644,0.316-9.356-0.007
			c-0.826,0-1.566,0.277-2.201,0.822c-0.656,0.563-1.028,1.308-1.075,2.155c-0.047,0.83,0.188,1.58,0.696,2.224
			c0.542,0.692,1.296,1.059,2.121,1.059c0.002,0,0.005,0,0.006,0c0.647,0.041,1.245,0.081,1.792,0.122
			c-0.166,6.484-0.125,16.433,0.123,29.597c0.13,8.456,0.196,14.862,0.196,19.04c0,6.195-0.117,11.936-0.346,17.082
			c-0.442-0.016-0.849-0.042-1.215-0.078c-0.917-0.089-1.743,0.159-2.396,0.72c-0.656,0.562-1.027,1.308-1.074,2.154
			c-0.048,0.843,0.212,1.603,0.772,2.258c0.557,0.648,1.264,1.024,2.118,1.12c0.711,0.067,1.478,0.101,2.293,0.101
			c0.806,0,1.66-0.033,2.555-0.099c0.981-0.066,2.256-0.164,3.745-0.291h0.391c0.106,0,0.211-0.017,0.312-0.051
			c0.067-0.022,0.122-0.04,0.163-0.05c0.008,0,0.017-0.001,0.025-0.002c0.837-0.093,1.544-0.469,2.102-1.118
			c0.563-0.658,0.812-1.457,0.718-2.311c-0.093-0.837-0.469-1.544-1.118-2.102c-0.649-0.555-1.435-0.805-2.271-0.723
			c-0.131,0.007-0.273,0.036-0.473,0.096h-0.24c-0.047,0-0.094,0-0.14,0.001c0.225-5.008,0.339-10.622,0.339-16.707
			c0-4.253-0.066-10.702-0.195-19.171c-0.248-13.096-0.289-22.962-0.123-29.354c0.826-0.061,1.656-0.141,2.474-0.238
			c0.839-0.092,1.547-0.468,2.103-1.118c0.564-0.657,0.813-1.455,0.719-2.312C164.092,154.055,163.68,153.321,162.994,152.772z"/>
		<path fill="#58595B" d="M204.255,152.269c0-0.839-0.318-1.603-0.923-2.21c-0.605-0.603-1.368-0.921-2.208-0.921
			c-1.298,0-2.251,0.584-2.75,1.663c-2.271,0.011-5.482,0.075-9.757,0.193h-2.267c-6.235,0.124-11.255,0.13-14.94,0.024
			c-0.178-0.465-0.458-0.877-0.841-1.23c-0.628-0.579-1.431-0.839-2.332-0.743c-0.875,0.093-1.613,0.491-2.135,1.153
			c-0.495,0.632-0.746,1.362-0.746,2.168c0,0.106,0.017,0.212,0.051,0.313c0.011,0.032,0.047,0.163,0.047,0.469
			c0,0.374,0.035,0.663,0.111,0.901c0.063,0.799,0.126,1.478,0.188,2.042c0.094,0.843,0.492,1.563,1.15,2.079
			c0.655,0.515,1.441,0.741,2.299,0.641c1.074-0.143,1.892-0.678,2.368-1.53c2.908,0.102,6.441,0.129,10.527,0.085
			c0.3,9.429,0.421,21.38,0.359,35.531c-0.065,2.776-0.098,6.992-0.098,12.523c-0.06,8.105-0.092,14.343-0.097,18.57h-0.974
			c-0.87,0-1.634,0.355-2.211,1.027c-0.545,0.637-0.821,1.377-0.821,2.201c0,0.871,0.354,1.636,1.025,2.21
			c0.634,0.544,1.373,0.821,2.252,0.821c0.003,0,0.006,0,0.008,0c1.074-0.064,2.436-0.096,4.046-0.096h4.007
			c0.836,0,1.569-0.285,2.18-0.847c0.622-0.574,0.951-1.348,0.951-2.235c0-0.872-0.319-1.651-0.924-2.259
			c-0.605-0.603-1.368-0.921-2.207-0.921h-1.071c0.005-4.167,0.037-10.367,0.097-18.465c0-5.524,0.033-9.691,0.098-12.406
			c0.062-14.292-0.059-26.317-0.358-35.766h0.382c4.193-0.116,7.447-0.181,9.692-0.193c0.178,0.4,0.445,0.751,0.792,1.04
			c0.569,0.476,1.241,0.717,1.997,0.717c0.837,0,1.57-0.284,2.181-0.847c0.622-0.574,0.95-1.364,0.95-2.284l-0.004-1.848
			C204.287,153.162,204.255,152.633,204.255,152.269z"/>
		<path fill="#58595B" d="M244.514,152.269c0-0.839-0.319-1.603-0.924-2.21c-0.605-0.603-1.368-0.921-2.207-0.921
			c-1.298,0-2.251,0.584-2.75,1.663c-2.271,0.011-5.482,0.075-9.757,0.193h-2.267c-6.235,0.124-11.255,0.13-14.941,0.024
			c-0.177-0.465-0.458-0.877-0.841-1.23c-0.628-0.579-1.433-0.839-2.332-0.743c-0.875,0.093-1.613,0.491-2.135,1.153
			c-0.495,0.632-0.746,1.362-0.746,2.168c0,0.106,0.018,0.212,0.051,0.313c0.011,0.032,0.046,0.163,0.046,0.469
			c0,0.374,0.035,0.663,0.112,0.901c0.063,0.799,0.126,1.478,0.188,2.042c0.094,0.843,0.492,1.563,1.15,2.079
			c0.655,0.515,1.44,0.741,2.299,0.641c1.074-0.143,1.892-0.678,2.368-1.53c2.908,0.102,6.441,0.129,10.527,0.085
			c0.3,9.429,0.421,21.38,0.359,35.531c-0.065,2.776-0.098,6.992-0.098,12.523c-0.06,8.105-0.092,14.343-0.097,18.57h-0.974
			c-0.869,0-1.633,0.355-2.211,1.027c-0.545,0.637-0.822,1.377-0.822,2.201c0,0.871,0.355,1.636,1.026,2.21
			c0.634,0.544,1.373,0.821,2.252,0.821c0.003,0,0.005,0,0.008,0c1.075-0.064,2.436-0.096,4.046-0.096h4.006
			c0.837,0,1.57-0.285,2.181-0.847c0.622-0.574,0.95-1.348,0.95-2.235c0-0.872-0.318-1.651-0.923-2.259
			c-0.605-0.603-1.368-0.921-2.208-0.921h-1.07c0.005-4.167,0.037-10.367,0.097-18.465c0-5.524,0.033-9.691,0.098-12.406
			c0.062-14.292-0.059-26.317-0.358-35.766H229c4.193-0.116,7.447-0.181,9.692-0.193c0.178,0.4,0.445,0.751,0.792,1.04
			c0.569,0.476,1.241,0.717,1.997,0.717c0.837,0,1.57-0.284,2.181-0.847c0.622-0.574,0.95-1.364,0.95-2.284l-0.004-1.848
			C244.546,153.162,244.514,152.633,244.514,152.269z"/>
		<path fill="#58595B" d="M281.939,222.415c-0.004-0.833-0.322-1.591-0.924-2.195c-0.619-0.616-1.41-0.916-2.309-0.871
			c-0.88,0.048-1.614,0.383-2.183,1c-0.561,0.609-0.846,1.375-0.846,2.277c0,0.04,0.002,0.08,0.007,0.12
			c0.012,0.091,0.022,0.181,0.031,0.267l-3.329,0c-2.346-0.066-4.018-0.098-5.109-0.098c-1.961,0-3.763,0.022-5.372,0.067
			c-0.011-5.484-0.109-12.309-0.292-20.291c0-1.406-0.032-3.65-0.098-6.862c-0.377-16.589-0.512-29.488-0.402-38.363
			c0.172-0.009,0.337-0.014,0.496-0.014c0.918,0,1.677-0.294,2.257-0.874c0.58-0.58,0.874-1.323,0.874-2.208
			c0-0.869-0.285-1.618-0.848-2.23c-0.574-0.622-1.364-0.95-2.283-0.95c-1.126,0-2.469,0.067-3.908,0.196
			c-0.408,0-1.04,0.033-1.939,0.101c-0.745,0.063-1.31,0.094-1.677,0.094c-0.037,0-0.073,0.002-0.109,0.006
			c-0.824,0.092-1.523,0.442-2.079,1.042c-0.567,0.617-0.842,1.406-0.795,2.279c0.045,0.882,0.417,1.646,1.073,2.208
			c0.645,0.554,1.426,0.803,2.254,0.725c0.131-0.001,0.271-0.005,0.419-0.012c-0.105,8.905,0.031,21.727,0.405,38.138
			c0.065,3.197,0.098,5.428,0.098,6.842c0.184,8.172,0.282,15.092,0.292,20.589c-0.487,0.058-0.952,0.127-1.375,0.205
			c-0.843,0.094-1.563,0.492-2.079,1.15c-0.515,0.655-0.737,1.443-0.644,2.277c0.092,0.839,0.504,1.574,1.193,2.125
			c0.719,0.576,1.563,0.777,2.342,0.599c3.203-0.384,7.273-0.579,12.098-0.579c1.174,0,2.906,0.033,5.179,0.098h3.752
			c0.171,0.396,0.426,0.752,0.765,1.063c0.577,0.527,1.26,0.794,2.03,0.794c0.92,0,1.709-0.329,2.285-0.952
			c0.561-0.609,0.846-1.342,0.846-2.179C282.037,226.599,282.004,224.772,281.939,222.415z"/>
		<path fill="#58595B" d="M320.984,151.238c-0.562-0.654-1.307-1.024-2.156-1.073c-0.851-0.048-1.621,0.229-2.232,0.795
			c-0.397,0.366-0.685,0.794-0.861,1.281c-7.321,0.708-14.947,0.783-22.652,0.225c-0.855-0.092-1.653,0.156-2.308,0.718
			c-0.656,0.563-1.028,1.309-1.075,2.155c-0.047,0.833,0.22,1.615,0.772,2.258c0.557,0.65,1.265,1.027,2.141,1.122
			c0.61,0.044,1.229,0.073,1.85,0.089c0.369,14.913,0.558,36.698,0.563,64.791h-1.755c-0.841,0-1.604,0.319-2.208,0.923
			c-0.612,0.612-0.923,1.355-0.923,2.208s0.311,1.596,0.923,2.208c0.604,0.604,1.367,0.922,2.208,0.922
			c1.505,0,3.767,0.033,6.696,0.097c1.417,0.067,2.436,0.133,3.143,0.098c3.988,0.121,7.413,0.073,10.195-0.143
			c0.543,0.854,1.422,1.316,2.538,1.316c0.918,0,1.678-0.294,2.257-0.874s0.874-1.339,0.874-2.257v-2.639
			c0-0.081-0.01-0.163-0.03-0.242c-0.025-0.099-0.067-0.339-0.067-0.833c0-0.599-0.032-1.08-0.099-1.465
			c-0.024-0.816-0.351-1.537-0.95-2.091c-0.615-0.565-1.392-0.838-2.281-0.795c-0.88,0.047-1.614,0.383-2.183,1
			c-0.562,0.609-0.846,1.342-0.846,2.179c0,0.063,0.006,0.126,0.018,0.189c0.014,0.068,0.028,0.16,0.041,0.282
			c-2.489,0.188-5.617,0.227-9.339,0.111c-0.475,0-1.128-0.018-1.95-0.052c-0.001-16.354-0.032-29.353-0.092-38.667
			c0.297-0.017,0.623-0.039,0.967-0.067h0.293c0.036,0,0.072-0.002,0.107-0.006c0.177-0.02,0.344-0.036,0.5-0.048
			c0.147,0.527,0.427,0.988,0.829,1.357c0.607,0.562,1.358,0.847,2.229,0.847c0.874,0,1.637-0.302,2.208-0.874
			c0.58-0.58,0.874-1.339,0.874-2.257c0-1.031,0.065-2.588,0.195-4.69c0-0.837-0.284-1.57-0.847-2.181
			c-0.567-0.613-1.284-0.949-2.133-0.998c-0.839-0.046-1.614,0.222-2.255,0.771c-0.549,0.471-0.887,1.067-0.992,1.746
			c-0.314,0.016-0.652,0.04-1.009,0.071l-0.375,0.003c-0.257,0.021-0.493,0.04-0.706,0.054c-0.065-6.613-0.184-13.252-0.354-19.768
			c5.057,0.08,10.087-0.098,14.986-0.536c0.165,0.367,0.401,0.705,0.707,1.01c0.571,0.571,1.284,0.874,2.062,0.874
			c0.921,0,1.711-0.329,2.283-0.95c0.562-0.608,0.847-1.342,0.847-2.181c0-1.083,0.064-2.334,0.195-3.811
			C321.807,152.617,321.531,151.876,320.984,151.238z"/>
	</g>
	<g>
		<g>
			<circle fill="#2377B8" cx="336.396" cy="163.06" r="9.041"/>
			<circle fill="#58595B" cx="344.218" cy="190.003" r="9.041"/>
			<circle fill="#8DC449" cx="336.396" cy="216.946" r="9.041"/>
		</g>
		<g>
			<circle fill="#2377B8" cx="95.604" cy="163.06" r="9.041"/>
			<circle fill="#58595B" cx="87.782" cy="190.003" r="9.041"/>
			<circle fill="#8DC449" cx="95.604" cy="216.946" r="9.041"/>
		</g>
	</g>
</g>
</svg>
